<svg xmlns="http://www.w3.org/2000/svg" id="Layer_1" data-name="Layer 1" viewBox="0 0 1772.4 426.34"><defs><style>.cls-1{fill:#606060;stroke-width:0}</style></defs><g id="FYLO1B.tif"><path d="M1493.22 426.34c25.66-12.52 49.27-27.88 69.63-48.12 113.1-112.38 81.88-303.27-61.24-373.85-1.86-.92-3.68-1.92-6.87-3.58h277.28v9.8c0 135.15 0 270.29.02 405.44 0 3.43.24 6.87.36 10.3h-279.18zM0 0c2.64.13 5.28.36 7.92.36 79.73.02 159.46.02 239.19.02h9.26C199.4 142.93 142.78 284.64 86.15 426.34H0V0zm571.13 426.34c-.79-2.99-1.27-6.1-2.41-8.96-54.25-135.59-108.57-271.15-162.86-406.73-1.25-3.11-2.28-6.32-3.59-9.98h235.49v9.92c0 135.15 0 270.29.02 405.44 0 3.44.23 6.87.35 10.31h-67zm494.55 0c.15-3.43.44-6.86.44-10.29.02-134.66.02-269.31.02-403.97V1.07h244.58c-23.1 10.71-43.55 23.81-61.35 40.69-53.14 50.41-79.95 112.44-74.66 185.28 6.61 91.12 52.95 157.31 135.46 197.81.95.47 1.87.99 2.8 1.49h-247.28zm-319.07 0c.21-3.15.59-6.31.6-9.46.04-52.22.03-104.43.03-156.65v-8.39h209.48v10.75c0 51.42 0 102.84.02 154.26 0 3.16.3 6.33.46 9.49H746.62zm-550.39 0c11.03-27.49 22.23-54.92 32.96-82.52 2.15-5.53 4.78-7.65 10.89-7.63 59.51.23 119.03.22 178.54.01 5.68-.02 8.42 1.73 10.47 7.05 9.72 25.16 19.87 50.16 29.9 75.2 1.08 2.68 2.43 5.26 3.65 7.88H196.22z" class="cls-1"/><path d="M1403.25 83.61c70.41.53 126.43 58.35 125.98 130.03-.45 71.92-57.37 129.84-126.92 129.17-71.71-.68-126.44-58.71-125.73-133.31.66-69.46 57.96-126.41 126.68-125.89zM747.23.66h208.89v164.12c-3.99 0-8.11.04-12.23 0-62.45-.78-124.91-1.66-187.36-2.22-6.98-.06-9.54-1.59-9.48-9.21.37-47.97.19-95.95.19-143.93V.66zM329.26 94.22c22.93 57.16 45.13 112.5 67.65 168.61H261.6c22.55-56.2 44.76-111.52 67.67-168.61z" class="cls-1"/></g></svg>