<svg xmlns="http://www.w3.org/2000/svg" data-name="Layer 1" viewBox="0 0 3288.74 412.44"><path fill="#606060" d="M3288.74 285.06c-1.25 1-3.08 1.75-3.68 3.05-10.53 22.77-30.96 28.78-53.3 30.47-23.2 1.75-45.01-2.92-63.81-17.7-9.06-7.13-9.29-9.19-1.6-17.85 1.3-1.47 2.74-2.84 3.9-4.42 4.45-6.02 7.77-7.05 14.74-1.37 17.62 14.33 37.77 21.57 60.16 11.03 15.22-7.16 16.26-25.14 1.52-33.35-11.3-6.29-24.09-9.9-36.18-14.79-7.25-2.93-14.58-5.75-21.61-9.14-16.35-7.89-23.16-21.38-22.26-39.12.96-18.83 11.21-31.55 28.21-37.67 25.03-9.01 50.23-8.32 74.17 4.41 18.71 9.95 19.31 15.02 4.45 29.21-1.63 1.56-3.44 2.94-5.93 5.04-2.77-2.45-5.36-4.78-7.99-7.07-13.67-11.9-30-12.72-46.42-9.4-7.19 1.46-13.69 6.75-14.41 15.59-.7 8.54 3.3 14.88 10.93 17.98 11.77 4.78 23.84 8.9 35.94 12.84 16.52 5.39 32.05 11.86 39.89 29.04.42.91 2.16 1.21 3.29 1.8v31.41zM809.59 409.27c-9.48-20.19-17.75-37.81-26.02-55.43-27.21-57.96-54.45-115.9-81.61-173.89-26.17-55.9-52.17-111.88-78.46-167.72-3.43-7.28-1.49-9.26 6.03-9.22 33.82.18 67.64.4 101.45-.12 8.27-.13 10.86 4.73 13.49 10.34 17.46 37.27 34.76 74.62 52.2 111.9 22.7 48.52 45.42 97.03 68.27 145.48 3.37 7.14 4.74 13.75 1.07 21.42-17.08 35.64-33.78 71.45-50.67 107.17-1.22 2.57-2.82 4.97-5.75 10.06zm-200.06-.6c-7.49-15.62-14.18-29.3-20.64-43.1-21.06-44.95-42.04-89.94-63.04-134.93-30.52-65.37-61.02-130.76-91.54-196.13-3.59-7.69-7.24-15.36-10.97-22.98-2.88-5.9-1.26-8.47 5.42-8.46 34.46.09 68.92.26 103.38-.12 8.47-.09 10.32 5.86 12.86 11.25 14.06 29.83 27.83 59.78 41.82 89.65 26.17 55.89 52.34 111.77 78.7 167.57 3.48 7.38 3.64 14.06.1 21.47-16.74 35.07-33.18 70.29-49.8 105.41-1.44 3.05-3.5 5.81-6.29 10.36zM139.49 2.8c15.23 32.4 29.3 62.22 43.27 92.08 28.52 60.98 56.95 121.99 85.5 182.96 18.98 40.54 38.08 81.02 57.14 121.52 3.05 6.48 1.79 9.83-6.11 9.81-33.83-.11-67.66-.12-101.49.1-6.21.04-9.41-2.56-11.92-7.99-14.77-32.04-29.8-63.96-44.79-95.9-25.82-55.03-51.85-109.96-77.22-165.19-2.41-5.25-2.96-13.32-.67-18.44 16.3-36.37 33.56-72.31 50.55-108.37 1.34-2.84 2.99-5.54 5.73-10.57zm199.87-.21c10.57 22.45 19.89 42.18 29.14 61.93 25.76 55 51.5 110.01 77.25 165.01 26.59 56.78 53.19 113.56 79.79 170.34 2.75 5.87 1.96 9.37-5.6 9.35-34.46-.1-68.93.18-103.38-.43-3.64-.06-8.8-4.25-10.54-7.83-15.38-31.74-30.15-63.77-45.11-95.72-25.63-54.71-51.18-109.45-76.99-164.07-3.67-7.77-3.53-14.5.22-22.33 16.51-34.44 32.48-69.14 48.68-103.73 1.61-3.44 3.5-6.75 6.52-12.53zm2022.76 261.57c5.29-18.36 10.6-36.7 15.85-55.07 6.88-24.08 13.68-48.19 20.55-72.27 2.5-8.75 5.53-17.38 7.49-26.25 1.88-8.47 5.35-13.78 15.14-12.56 4.2.52 8.53.07 12.8.08 15.75 0 16.33-.16 20.81 14.83 8.66 28.99 16.54 58.22 24.86 87.31 6.09 21.29 12.35 42.52 18.62 63.76.32 1.08 1.35 1.95 3.11 4.41 4.06-13.06 7.69-24.62 11.25-36.21 7.36-23.94 14.75-47.87 21.99-71.85 5.27-17.44 10.64-34.85 15.3-52.45 1.82-6.87 4.95-10.4 12.16-9.81.65.05 1.31.01 1.97 0 24.9-.23 24.54-.34 16.83 23.04-14.06 42.64-27.66 85.43-41.45 128.16-6.2 19.2-12.1 38.5-18.84 57.51-1.11 3.13-5.53 5.73-9.01 7.18-2.79 1.17-6.47.23-9.75.23-22.63 0-23.2.18-29.43-20.67-8.85-29.6-16.72-59.48-25.06-89.23-4.65-16.6-9.33-33.19-14.25-49.71-.54-1.8-2.78-3.1-4.22-4.64-1.44 1.59-3.68 2.95-4.21 4.79-6.73 23.43-13.06 46.97-19.81 70.4-6.94 24.06-14.49 47.94-21.24 72.05-2.6 9.29-3.01 17.99-17.17 17.37-26.68-1.18-26.36-.42-34.34-25.76-11.92-37.85-24.42-75.51-36.63-113.26-7.6-23.52-15.25-47.03-22.39-70.69-.49-1.62 2.9-6.24 4.78-6.43 7.81-.75 15.79-.87 23.58-.04 2.64.28 6.22 3.59 7.12 6.27 6.23 18.49 11.91 37.16 17.67 55.81 8.73 28.28 17.33 56.6 26.06 84.89 2.03 6.57 4.37 13.03 6.57 19.55 1.1-.24 2.19-.49 3.29-.73zM1240.67 158.23c-24.34 37.74-48.69 75.48-74.56 115.6-25.85-39.69-50.66-77.79-75.46-115.88-1.12.47-2.24.94-3.37 1.42-.15 3.41-.44 6.83-.44 10.24-.04 43.82-.03 87.64-.05 131.45 0 13.18-.22 13.42-13 13.37-22.87-.09-20.12 2.2-20.15-19.72-.08-61.15-.04-122.3-.01-183.45 0-12.44.58-11.66 12.53-13.17 18.62-2.36 29.48 4.2 38.87 20.98 17.86 31.91 38.74 62.15 58.4 93.06 1 1.57 2.3 2.96 4.27 5.46 2.62-3.34 5-5.88 6.82-8.77 21.19-33.42 42.28-66.91 63.44-100.35 5.49-8.68 26.69-14.59 35.4-9.12 2.44 1.53 3.61 6.62 3.66 10.1.34 20.27.17 40.55.17 60.82 0 43.82.01 87.64 0 131.45 0 12.38-.31 12.69-12.67 12.69-23.11-.01-20.35 2.36-20.39-20.48-.07-42.18.08-84.36.04-126.55 0-2.94-.76-5.87-1.16-8.81l-2.33-.33zm774.67 192.93c16.2 5.23 30.11 11.17 44.64 14.03 18.57 3.66 36.85-.13 48.93-15.6 6.45-8.26 9.68-19.68 12.13-30.18 1.91-8.19.38-17.17.38-29.03-22.23 20.75-45.87 28.12-72.55 22.28-18.86-4.12-34.11-14.52-45.43-30.42-23.03-32.34-20.6-80.53 6.19-108.83 14.48-15.3 32.3-23.75 53.93-24.32 21.48-.56 39.6 6.82 55.01 20.87 1.16-.83 1.99-1.1 2.14-1.57 1.45-4.73 2.04-13.12 4.29-13.58 8.14-1.67 16.86-.99 25.3-.35 1.33.1 3.31 4.58 3.32 7.03.08 52.96.89 105.94-.57 158.86-.77 28.03-11.68 53.09-39.31 65.2-13.08 5.73-28.32 8.51-42.69 8.94-19.53.58-39.18-2.04-57.15-11.51-12.96-6.83-13.88-9.22-5.83-21.21 2.71-4.03 5.48-8.01 7.26-10.61zm54.8-172.27c-28.86-.92-50.08 24.39-49.82 52.18.29 29.58 21.62 53.73 51.28 53.3 30.74-.44 49.69-25.62 49.62-53.73-.08-28.83-21.86-53.4-51.08-51.75zm-619.43 119.58c-9.04 5.33-17.4 11.89-26.88 15.56-44.36 17.19-92.91-12.86-102.14-59.28-5.38-27.07-1.18-51.25 13.58-73.79 23.36-35.69 79.89-45.36 114.64-12.07.72-.5 1.92-.88 2.17-1.59 1.55-4.37 2.26-12.24 4.41-12.63 8.23-1.49 16.93-.92 25.38-.26 1.39.11 3.48 4.53 3.49 6.97.21 48.41.13 96.83.19 145.25 0 5.26-2.05 8.05-7.54 7.79-.33-.02-.66 0-.98 0-6.56-.11-14.15 1.75-19.34-.96-3.94-2.06-4.83-9.93-6.98-15.01zm3.97-65.21c-2.19-8.39-3.49-17.14-6.71-25.11-12.9-31.89-57.61-39.8-80.87-14.42-15.84 17.28-18.86 37.83-11.96 59.38 8.78 27.42 38.16 44.52 67.55 31.01 21.06-9.68 30.41-27.56 31.99-50.86zm1269.22-63.85c.95-1 1.89-1.56 2.17-2.36 1.52-4.32 2.22-12.01 4.42-12.45 7.88-1.55 16.28-1 24.41-.37 1.38.11 3.45 4.51 3.46 6.93.2 48.42.09 96.85.2 145.27.01 5.83-2.1 8.6-8.13 8-1.95-.2-3.94 0-5.91.02q-15.21.07-18.05-14.27c-.22-1.11-1.24-2.07-1.15-1.94-10.99 5.88-20.95 12.98-32.03 16.83-41.37 14.34-87.33-13.65-97.46-56.53-7.13-30.15-2.63-56.97 15.63-81.52 25.62-34.44 82.68-37.68 109.19-9.65.82.87 2.08 1.32 3.24 2.03zm4.37 63.35c-2.25-8.06-3.74-16.42-6.88-24.11-13.2-32.29-56.55-40.3-80.58-15.17-16.26 17-20.84 42.36-10.96 63.6 8.07 17.35 20.96 28.96 40.81 31.23 34.42 3.93 56.92-27.05 57.62-55.55zm-1043.24 81.4c-14.33 0-25.68.45-36.95-.33-2.69-.19-5.55-4.15-7.54-6.93-11.99-16.77-23.7-33.74-35.64-50.56-2.76-3.88-6.02-7.41-9.44-11.56-12.87 12.35-26.75 22.59-22.61 42.44.33 1.57.07 3.26.04 4.9-.46 25.29 4.25 21.98-23.52 22.4-5.94.09-8.38-2.08-8.23-7.97.22-8.82.07-17.66.07-26.49 0-61.48.19-122.95-.21-184.43-.06-9.78 2.46-13.15 12.67-12.67 20.46.95 19.24-2.43 19.23 18.97-.02 34.34-.05 68.67.04 103.01 0 3.65.72 7.3 1.37 13.52 14-15.17 26.09-28.27 38.2-41.37 3.78-4.09 8.46-7.63 11.25-12.3 13.34-22.29 34.25-14.34 56.1-15.27-3.54 4.91-5.24 7.83-7.46 10.28-15.22 16.7-30.21 33.64-46.01 49.78-6.78 6.92-6.25 12-.92 19.29 17.75 24.32 34.94 49.04 52.3 73.64 2.01 2.85 3.71 5.91 7.28 11.65zm1384.53-71.99c-17.39 0-34.78.27-52.15-.11-8.96-.2-10.65 3.33-8.55 11.37 5.78 22.2 30.61 38.95 54.19 36.52 13.32-1.37 25.61-4.67 36.27-13.34 1.8-1.46 7.55-1.21 8.94.41 14.35 16.73 18.33 17.94-3.06 29.97-44.94 25.29-104.85 10.15-125.4-38.94-19.22-45.9 1.94-105.23 55.73-117.5 45.46-10.37 85.05 15.73 95.36 57.41 1.79 7.22 2.87 14.65 3.72 22.05.99 8.56-2.8 12.5-11.92 12.28-17.7-.43-35.42-.13-53.14-.12zm-15.6-22.01c11.47 0 22.95.02 34.42 0 10.1-.03 12.51-3.2 9.46-12.34-6.48-19.42-24.67-32.56-44.66-32.28-18.35.26-37.8 15.16-43.36 33.21-2.53 8.23-.25 11.33 8.74 11.41 11.8.11 23.6.03 35.4 0zm-1210.64-54.81c15.59-13.62 32.2-17.16 50.6-16.44 28.86 1.13 53.54 20.53 55.72 49.31 2.73 36.07 2.2 72.39 2.69 108.61.03 2.41-2.96 6.74-4.92 6.97-7.44.85-15.16 1.17-22.49-.05-2.29-.38-5.17-6.18-5.23-9.55-.43-26.8.38-53.63-.59-80.4-.36-10.06-2.57-20.95-7.21-29.75-7.21-13.69-26.39-18.52-44.71-13.9-12.72 3.21-24.36 17.54-24.66 32.18-.61 29.73-.51 59.48-.7 89.22-.08 12.39-.5 12.95-12.58 12.89-21.45-.11-20.1 2.63-20.1-20.04.01-41.52.03-83.03.04-124.55q0-16.29 15.9-16.26c1.31 0 2.63.05 3.94 0 7.33-.28 14.69-.65 14.3 11.75zM2874.7 278.74c6.39-17.34 12.84-34.66 19.17-52.02 8.13-22.31 16.05-44.69 24.38-66.93.89-2.37 3.81-5.46 5.97-5.61 9.27-.62 18.6-.26 29.49-.26-5.79 15.47-10.84 29.05-15.96 42.61-13.25 35.01-26.79 69.91-39.63 105.06-3.35 9.16-7.48 14.57-18.2 12.98-5.78-.86-11.86-.73-17.68-.01-8.33 1.03-11.76-3.45-14.32-10.2-16.69-44.15-33.38-88.3-50.33-132.36-7.12-18.5-7.4-18.39 12.76-18.39 17.71 0 17.02.23 22.67 17.01 9.46 28.06 19.91 55.79 29.94 83.66 2.92 8.12 5.82 16.24 8.73 24.36 1 .04 2 .08 2.99.11zM949.28 50.72c.01 27.59-22.81 49.68-51.28 49.62-29.02-.06-51.58-22.41-51.25-50.76.34-27.85 23.07-49.77 51.42-49.58 29.32.2 51.1 21.8 51.11 50.72zM50.64 312.21c28.73-.16 52.25 22.27 52.42 49.98.16 27.36-23.87 51.11-52.19 50.23-30.15-.93-49.9-19.4-50.84-49.01-.96-30.18 21.86-50.59 50.61-51.2zm1703.33-77.63c0 23.21-.22 46.42.13 69.63.11 7.57-2.39 10.51-10.18 10.35-25.76-.55-21.92 2.72-22.02-21.86-.18-42.5.17-84.99-.22-127.49-.08-8.95 2.46-12.06 11.69-11.79 23.84.7 20.42-2.13 20.57 20.36.14 20.27.03 40.53.03 60.8zm-17.22-159.34c13.56-.1 24.58 10.87 24.44 24.33-.13 12.57-11.62 24.02-24.04 23.96-12.5-.06-23.69-11.37-23.78-24-.08-12.81 10.87-24.19 23.38-24.28z"/></svg>