<svg xmlns="http://www.w3.org/2000/svg" data-name="Layer 1" viewBox="0 0 1113.13 374.32"><path fill="#606060" d="M789.07 184.61c26.33-21.27 61.31-1.15 93.57-13.53C862.95 115.8 843.06 59.94 821.85.36c34.26 0 66.14-1.29 97.75 1.01 6.92.5 15.51 12.73 18.95 21.31 35.91 89.77 70.72 179.99 106.29 269.89 12.31 31.1 25.68 61.87 68.3 77.69H918.75c6.12-7.44 18.64-16.54 21.7-28.13 3.09-11.73-1.35-26.59-5.72-38.93-10.74-30.37-24.28-59.76-34.76-90.21-5.15-14.97-13.51-18.41-27.93-17.88-26.8.99-53.66.29-80.49.29-.83-3.6-1.65-7.19-2.48-10.79zm-564.88 11.97H121.42q7.05-18.61 45.78-18.61h55.21c0-44.42 2.69-86.49-1.39-127.9-1.52-15.49-18.81-29.42-28.38-43.31h133.6v364.33H186.32c33.26-12.89 38.3-39.89 37.97-70.24-.38-33.85-.09-67.72-.09-104.27zM579.9 1.05c32.05 6.56 64.75 10.92 95.95 20.29 31.33 9.41 51.18 31.89 55.27 66.09 4.43 37.06-6.96 67.24-37.77 89.16-6.49 4.62-13.62 8.35-23.6 14.39 42.74 67.43 84.07 134.47 153.31 181.84-39.85 0-78.7 4.29-115.93-1.64-21.61-3.44-46.63-18.9-59.58-36.64-30.31-41.53-54.28-87.69-80.73-131.85 75.55-46.65 78.67-149.54 11.65-193.47l1.44-8.17zm-79.02 370.21H392.26c52.91-18.72 87.53-55.31 108.62-106.62v106.62zM397.83 6H500.5v99.54l-5.91 4.32C477.3 60.1 446.31 24.66 397.83 6.01zM80.64 285.37c-8.65 31.22-7.51 65.15 34.44 85.34H0c25.74-27.24 54.99-58.19 80.64-85.34zm351.9-98.47c-13.96 12.65-30.59 27.72-46.71 42.34v-84.83c15.3 13.92 32.86 29.89 46.71 42.49z"/></svg>