<svg xmlns="http://www.w3.org/2000/svg" data-name="Layer 1" viewBox="0 0 2646.92 511.23"><path fill="#606060" d="M1005.4 401.76h-72.86V272.34c0-12.59-.02-25.17-.04-37.76-.03-26.05-7.87-46-38.43-46.68-24.01-.54-44 19.51-44.72 47.26-1.11 42.97-.34 86-.36 129v36.8h-78.14V280.6c0-15.73-.13-31.47.03-47.2.25-24.98-7.53-43.67-36.18-45.4-25.12-1.51-45.64 17.02-46.33 44.85-1.21 49.27-.38 98.58-.53 147.88-.02 6.11-.81 12.22-1.39 20.47h-75.01V126.38c27.09 1.05 55.22-10.85 83.45 10.54 46.2-25.97 94.01-32.63 130.98 4.1 41.2-8.25 76.89-20.82 112.69-21.12 39.96-.34 67.63 25.27 69.73 63.93 3.86 71.03 1.42 142.41 1.38 213.64 0 1.44-2.81 2.88-4.27 4.28zM77.14 238.5v162.4H0V21.65h76.25V192.3c10.62-9.68 16.72-14.06 21.35-19.65 34.77-42.04 70.42-83.45 103.32-126.92 15.64-20.66 32.35-30.09 58.18-26.93 17.56 2.14 35.59.41 61.74.41-54.09 66.7-104.33 128.65-155.97 192.33 50.6 62.22 100.65 123.75 154.49 189.95-51.68 1.36-97.23 14.7-130.97-38.18-29.43-46.13-68.79-85.94-103.76-128.54-2.5 1.25-4.99 2.5-7.49 3.74zm1053.29 147.67v114.94h-77.55V121.32c27.85 4.22 53.35 8.56 79.01 11.63 6.18.74 13.19-1.9 19.25-4.38 70.23-28.68 140.14.36 166.73 71.31 17.26 46.07 15.65 92.84-6 137.38-32.62 67.11-95.85 84.96-181.43 48.89zm.13-123.89c1.62 24.49-8.63 54 23.75 70.31 26.98 13.58 59.32 6.85 78.86-17.85 24.7-31.22 23.31-81.41-3.04-110.27-21.16-23.17-54.58-28.97-79.43-10.53-9.5 7.06-15.84 20.69-19.48 32.59-3.22 10.51-.67 22.78-.67 35.75zM502.2 238.1c-9.71-21.13-12.66-41.98-23.37-47.34-14.7-7.35-38.21-9.2-52.81-2.42-41.85 19.45-41.54 21.77-90.25 16.11 1.75-29.52 16.55-51.15 40.62-65.85 48.94-29.89 100.1-28.42 150.49-4.35 26.66 12.73 40.89 36.94 41.4 66.13 1.15 65.95.36 131.93.36 205.95-26.45-4.09-50.59-8.21-74.85-11.32-6.26-.8-12.89 1.93-19.4 2.41-28.85 2.13-58.44 8.96-86.42 4.87-43.31-6.33-67.08-41.76-66.09-86.55.9-40.69 25.84-67.75 70.91-74.85 16.5-2.6 33.5-2.26 50.28-2.7 15.63-.41 31.28-.09 59.14-.09zm-9.73 45.87c-21.15 0-39.95-1.32-58.49.33-23.21 2.07-40.69 13.04-38.65 39.51 1.79 23.35 26.17 38.72 51.06 34.28 31.69-5.65 47.29-29.49 46.08-74.13zm1035.83-48.09c-10.14-20.18-13.78-40.73-24.64-45.78-14.98-6.96-42.88-9.95-52.13-1.05-27.84 26.77-58.13 15.62-90.13 17.18 1.52-35.58 20.59-57.93 48.5-72.56 44.73-23.45 91.07-22.15 136.82-2.36 28.54 12.34 45.49 35.33 46.14 66.04 1.42 66.98.44 134.01.44 209.56-26.52-4.68-50.4-9.43-74.48-12.77-6.46-.9-13.46 3.32-20.3 3.79-28.88 2.01-58.53 8.29-86.53 4.04-42.26-6.42-66.99-44.03-65.15-87.6 1.65-39.06 26.17-67.06 69.43-72.86 32.98-4.42 66.67-3.59 112.04-5.63zm-9.32 48.31c-21.84 0-41.68-1.57-61.15.42-21.66 2.21-38.25 12.45-36.51 38.07 1.53 22.59 22.36 38.45 46.56 36.19 32.43-3.04 50.41-27.78 51.1-74.67zm789.12-5.77h-185.79c1.92 32.18 13.62 53.55 41.64 63.22 25.05 8.64 48.15 4.8 64.66-17.75 21.36-29.19 49.72-6.92 74.67-15.29-3.99 60.2-63.75 104.08-129.86 99.23-82.61-6.05-133.16-70.02-126.37-159.91 6.19-81.96 65.38-135.88 143.16-130.4 76.78 5.4 125.35 69.25 117.89 160.9zm-179.49-48.88h101.11c-4.53-34.07-19.7-49.21-47.34-49.57-30.31-.39-49.38 16.65-53.77 49.57zm-491.57-106.58c28.24 2.5 54.73 4.84 81.22 7.19-.16 3.17-.33 6.34-.49 9.52 9.29-4.63 18.34-9.84 27.91-13.8 70.5-29.15 137.47 9.2 141 83.6 2.97 62.67.61 125.59.61 191.21h-77.91c0-26.73.02-54.39 0-82.05-.03-27.25.7-54.53-.37-81.74-1.23-31.32-18.68-48.72-46.17-48.28-27.69.44-49.85 21.26-50.23 49.59-.72 53.37-.21 106.76-.21 162.68h-75.35V122.96zm247.8 384.41v-54.52q49.12-12.62 49.18-65.17c.03-85.86 0-171.73 0-260.25h79.53c0 43.24.02 85.95 0 128.65-.03 50.35.15 100.71-.18 151.06-.53 82.22-43.55 116.27-128.54 100.23zM1973.85 0c26.64.28 46.79 19.43 46.88 44.56.09 25.98-22.23 46.23-49.77 45.14-25.99-1.03-46.24-21.74-45.4-46.46.84-24.9 21.64-43.53 48.29-43.25zm543.53 86.25V5.28c30.2-1.66 62.14-5.82 93.71-3.93 11.92.71 29.84 13.45 32.94 24.18 5.43 18.79 1.51 40.26 1.51 60.61l-10.17.54c-.99-14.12.48-29.03-3.71-42.13-3.75-11.75-13.73-21.52-20.96-32.17-7.74 10.29-18.87 19.58-22.31 31.15-3.9 13.1-.9 28.24-.9 42.5-3.46.4-6.91.79-10.37 1.19-1.52-11.61-3.4-23.18-4.49-34.83-1.59-16.98 3.93-40.49-23.07-39.21-24.54 1.16-22.24 23.2-22.76 41.02-.31 10.7-1.04 21.38-1.58 32.08-2.62 0-5.24-.02-7.85-.03zm-23.3-41c-.39 25.99-20.4 45.09-46.61 44.49-26.06-.6-44.76-20.93-43.55-47.33 1.17-25.34 19.12-42.25 45-42.37 26.91-.13 45.56 18.54 45.16 45.21zm-38.91-38.17-14.81.3c-7.57 12.39-19.85 24.15-21.61 37.31-2.73 20.4 12.13 36.07 32.17 30.87 11.85-3.08 26.74-20.61 27.54-32.49.77-11.43-14.86-23.95-23.29-35.99zm-71.68 69.27c-17.39 17.45-42.59 18.83-60.79-.03-17.14-17.75-16.48-47.59 1.42-64.85 17.61-16.98 42.95-15.03 63.79 7.25-22.71-1.91-48.55-18.8-59.67 11.84-3.61 9.96-1.95 30.51 3.87 33.51 15.23 7.84 34.08 8.67 51.38 12.27z"/></svg>