<svg xmlns="http://www.w3.org/2000/svg" data-name="Layer 1" viewBox="0 0 2256.37 625.33"><path fill="#606060" d="M540.58 625.33c-12.45-5.48-26.09-7.38-38.32-13.84-36.01-19.01-62.72-47.57-83.93-81.36-35.99-57.35-55.38-120.5-63.57-187.38-4-32.69-6.22-65.45-4.79-98.36.42-9.6-4.85-13.03-12.96-14.29-16.57-2.58-31.42 2.07-45.08 11.15-29.78 19.81-53.43 46.06-76.91 72.56-26.42 29.81-49.04 62.75-76.57 91.65-16.73 17.57-35.93 30.96-60.35 34.15-65.02 8.51-84.61-41.15-76.3-83.67 4.54-23.23 18.61-41.45 35.17-57.3 61.79-59.16 136.2-93.1 220.14-107.07 28.2-4.69 56.63-6 85-.9 9.32 1.68 11.96-2.8 13.29-11.08 6.6-40.99 22.43-78.21 51.11-108.48 40.32-42.56 92.08-62.49 149.3-69.65 26.92-3.37 53.55-.87 79.59 7.02 9.42 2.86 18.24 7.02 26.02 13.01 21.86 16.83 21.77 40.42-.41 56.89-15.46 11.48-33.07 18.97-51.12 25.4-49.5 17.64-101.03 27.79-151.71 41.07-16.48 4.32-32.65 9.84-48.93 14.92-7.5 2.34-14.07 6.34-19.51 12.04-13.58 14.25-10.98 27.11 6.08 36.88 63.72 36.5 113.84 87.39 154.58 147.77 27.62 40.94 50.75 84.06 59.73 133.37 4.32 23.74 5.43 47.54 1.11 71.42-6.07 33.51-23.16 57.04-58.44 64.07h-12.22zm1715.79-411.91c-3.42 7.29-9.06 9.63-17.04 8.73-13.34-1.51-24.66 3.48-34.48 12.29-15.28 13.7-26.58 30.56-37.93 47.39-2.99 4.44-2.08 9.38-2.09 14.17-.06 54.37-.41 108.74.25 163.09.15 11.97-5.23 13-14.6 12.9-9.01-.1-13.88-1.26-13.81-12.62.52-85.2.55-170.4-.03-255.6-.08-11.79 5.54-12.13 14.04-12.44 9.28-.33 14.5 1.71 13.48 12.73-1 10.86-.37 21.89-.13 32.84.07 3.36-1.95 8.11 2.33 9.76 4.9 1.89 5.44-3.73 7.37-6.28 7.84-10.35 15.48-20.8 24.76-30.02 11.86-11.78 25.93-17.24 42.57-17.99 7.75-.35 12.61 1.72 15.3 8.85v12.19zM1078.72 345.49c-26.48 0-52.96.29-79.42-.18-7.65-.14-9.95 2.14-9.48 9.58.8 12.53-.78 25.17 1.78 37.64 7.17 34.87 30.45 55.05 66.02 57.24 30.25 1.86 59.4-2.76 86.05-17.4 11.27-6.19 13.96.39 18.13 7.74 4.86 8.56 1.64 12.88-6.53 16.74-36.01 17.02-73.86 22.56-112.95 16.73-45.68-6.81-74.74-36.24-79.26-82.54-3.9-39.95-4.33-80.39.38-120.33 5.58-47.35 44.99-81.05 92.75-82.13 69.74-1.58 109.8 36.1 112.11 105.73.47 14.2-.32 28.45.24 42.64.29 7.32-2.57 8.72-9.17 8.65-26.88-.31-53.76-.13-80.65-.13zm-15.08-22.84c13.03 0 26.07.32 39.09-.09 12.07-.38 28.85 5.41 35-2.32 6.95-8.75 2.36-24.94 1.46-37.84-2.7-38.68-30.52-66.92-67.56-69.14-43.33-2.6-72.34 18.76-80.3 59.5-2.67 13.64-.75 27.56-1.52 41.32-.4 7.18 2.32 8.84 9.07 8.72 21.58-.39 43.17-.14 64.75-.14zm798.95 8.7c0-19.46-.92-38.97.19-58.36 2.39-41.59 29.15-72.56 69.94-81.11 25.74-5.4 51.73-5.56 77.27 1.78 36.46 10.48 58.75 34.51 63.24 72.08 5.06 42.36 4.62 85.23.64 127.54-4.33 45.97-32.29 72.91-78.05 80.39-21.77 3.56-43.81 3.19-65.42-2.13-44.42-10.93-67.93-43.9-68.79-96.35-.24-14.61-.04-29.22-.04-43.83h1.04zm183.67.8c0-18.26.84-36.56-.18-54.76-1.84-32.67-20.76-54.73-51.3-61.11-12.79-2.67-25.83-3.5-38.87-2.27-39.69 3.76-60.6 21.84-64.43 61.56-3.77 39.11-4.28 78.71.68 117.86 4.11 32.41 22.86 50.75 55.39 55.67 16.05 2.42 32.44 2.34 48.57-1.38 25.95-5.99 41.96-21.65 47.89-47.64 5.12-22.46 2.54-45.26 2.27-67.92zm-589.98 13.34c-26.47 0-52.95.22-79.41-.14-7.12-.1-10.11 1.34-9.93 9.28.31 13.41.2 26.86 2.78 40.01 6.35 32.4 30.99 53 65.38 55.13 30.25 1.87 59.45-2.65 86.15-17.32 10.09-5.55 13.76-.72 17.88 6.51 4.21 7.41 4.57 12.98-4.79 17.36-40.02 18.7-81.68 24.72-124.77 14.96-40.75-9.23-68.13-42.62-69.53-84.86-1.19-35.69-1.28-71.48 0-107.17 1.8-49.91 42.57-88.87 92.59-90.7 21.45-.79 42.41 1.16 61.63 11.38 32.34 17.18 47.69 45.62 50.62 80.88 1.55 18.56.26 37.34.85 56 .22 6.93-1.83 8.93-8.81 8.83-26.87-.39-53.76-.16-80.64-.16zm-14.56-22.84c22.38 0 44.76-.23 67.13.14 6.78.11 9.36-1.68 9.08-8.8-.54-13.76.29-27.55-2.18-41.24-6.28-34.89-33.9-58.63-69.77-59.67-39.97-1.17-67.91 19.22-76.05 55.81-3.19 14.34-2.57 29-2.96 43.6-.2 7.79 1.77 10.58 10.06 10.36 21.55-.58 43.12-.19 64.69-.19zm193.87-80.36c20.7-26.11 42.88-44.34 72.89-51.4 52.37-12.31 93.95 17.9 95.06 71.57 1.38 66.55.42 133.15.82 199.73.08 12.59-8.69 9.07-15.24 9.53-7.1.5-13.42.86-13.32-10.13.46-55.62.26-111.24.16-166.87-.02-8.91-.41-17.83-1.06-26.71-2.93-40.12-33.61-60.79-71.87-48.27-28.37 9.28-48.06 29.45-65.24 52.67-3.04 4.11-2.14 8.5-2.14 12.83-.07 58.06-.37 116.12.23 174.17.12 11.09-4.26 12.86-13.57 12.56-8.79-.28-15.28.04-15.21-12.49.51-85.26.53-170.52-.01-255.78-.08-12.9 7.07-11.97 15.46-12.35 9.45-.43 14.21 2.24 13.27 13.01-1.01 11.53-.23 23.21-.23 37.9zm-775.18 84.36c0 29.23-.18 58.46.06 87.69.19 22.85 8.18 30.47 31.13 30.59 8.14.04 16.3.37 24.42-.08 10.22-.57 8.32 6.52 8.26 12.33-.06 5.71 2.13 12.96-8.23 12.26-16.19-1.09-32.54 1.79-48.66-1.77-19.29-4.27-30.18-16.63-33.65-35.59-1.31-7.14-1.86-14.51-1.88-21.77-.15-57.65-.39-115.3.2-172.94.11-10.47-2.91-13.6-12.81-12.24-5.19.71-10.66-.52-15.84.25-12.52 1.87-14.31-4.84-13.72-14.97.38-6.51 2.32-10.08 9.37-9.21.4.05.81.02 1.22 0 10.09-.29 23.7 3.27 29.36-1.87 6.63-6.03 1.65-19.81 2.07-30.21.34-8.51.77-17.12-.11-25.55-1.01-9.63 3.69-11.73 11.87-11.96 16.26-.47 16.93-.03 16.93 16.19 0 14.21.72 28.47-.25 42.61-.66 9.68 2.9 11.44 11.58 10.99 13.8-.71 27.71.46 41.5-.41 9.72-.61 10.68 4.56 10.74 11.76.07 7.62-.65 13.38-11.15 12.73-14.19-.88-28.51.31-42.72-.42-8.38-.43-9.97 2.63-9.87 10.25.4 30.44.17 60.89.17 91.34zm368.97-65.42c0-52.33.23-104.67-.2-157-.09-10.39.6-16.24 13.77-16.04 12.25.19 14.51 4.43 14.47 15.61-.41 101.42-.24 202.84-.24 304.26 0 30.8 6.25 37.74 36.86 36.93 12.33-.33 14.41 4.68 13.84 15.04-.4 7.38-3.08 10.01-10.39 9.44-6.87-.54-13.82 0-20.74-.13-28.86-.52-47.13-18.48-47.29-47.47-.29-53.55-.08-107.1-.08-160.65z"/></svg>