<svg xmlns="http://www.w3.org/2000/svg" data-name="Layer 1" viewBox="0 0 2401.87 412.8"><path fill="#606060" d="M2401.87 330.11c-.61.36-1.64.62-1.76 1.1-10.32 42.39-41.05 61.83-80.92 69.44-39.09 7.46-77.83 4.9-115.17-9.88-16.32-6.46-30.91-15.65-39.84-31.43-8.58-15.17-4.15-30.51 10.68-39.65 4.79-2.95 7.87-3.19 12.31 1.55 33.11 35.41 74.73 43.19 120.7 35.43 7.76-1.31 15.12-4.42 21.6-9.15 20.73-15.11 19.01-43.63-3.8-55.4-20.26-10.45-42.99-12.87-64.85-17.95-16.1-3.74-32-7.89-47.22-14.49-63.27-27.43-52.48-99.34-18.82-128.05 18.34-15.64 39.65-24.03 63.23-26.89 33.67-4.07 66.76-1.99 98.25 11.93 13.25 5.86 24.97 13.83 32.52 26.64 9.43 16.01 5.38 31.63-10.19 41.68-5.38 3.47-8.51 3.08-13.04-1.94-29.2-32.37-66.13-40.41-107.68-32.37-7.38 1.43-14.31 4.47-20.46 8.98-20.77 15.23-18.5 43.55 4.71 54.69 19.12 9.18 40.19 11.85 60.56 16.8 8.01 1.95 16.08 3.71 24.04 5.85 36.01 9.69 66.1 26.1 75.16 66.16v26.95zM1810.87 0c21.27 10.39 28.15 23.07 23.34 42.98-3.81 15.76-15.72 23.81-34.79 23.52-18.31-.28-30.52-8.84-33.75-23.67-3.95-18.12 2.25-32.35 17.15-39.61 1.9-.92 4.62-.56 5.5-3.23h22.56zm-538 404.33c-89.57-.03-150.61-61.58-150.39-151.64.21-88.25 62.57-149.75 151.74-149.65 87.8.1 150.8 63.32 150.16 151.62-.73 101.17-77.38 152.73-151.51 149.67zm95.83-149.76c0-3.74.36-7.51-.05-11.21-4.21-37.8-20.46-68.23-56.71-83.93-34.8-15.08-69.11-11.46-98.39 12.8-35.86 29.71-43.57 69.41-32.14 112.83 13.12 49.87 57.87 77.93 108.92 69.93 46.1-7.22 78.6-48.72 78.38-100.42zm-933.39 17.74c-10.89 0-21.78.04-32.66-.03-2.92-.02-6.12.39-6.89-3.88-1.73-9.67-2-19.34-.23-29 1.14-6.2 6.3-4.07 10.02-4.18 38.32-1.1 76.55-2.91 113.85-12.95 27.23-7.33 28.42-10.07 15.1-34.91-23.76-44.29-87.98-53.61-128.55-18.46-29 25.12-36.13 58.34-33.79 94.52 2.68 41.49 20.39 74.36 61.39 88.11 40.7 13.65 80.13 9.9 113.2-21.41 3.24-3.07 6.72-6.42 8.53-10.36 5.4-11.79 13.17-9.42 21.81-4.63 14.81 8.22 19.4 23.03 11.83 38.22-3.74 7.51-9.21 13.62-15.48 19.06-50.5 43.84-171.95 49.33-226.06-22.28-55.79-73.85-36.03-215.2 82.65-243.38 78.6-18.66 148.37 23.72 166.34 101.15 5.3 22.84.3 32.43-22.02 40.28-24.08 8.48-48.85 14.52-74.01 18.86-21.5 3.71-43.23 5.22-65.01 5.24zm402.54 84.74c-16.5 21.42-37.03 36.78-63.59 43.6-52.17 13.39-103.16-5.79-125.72-47.87-10.27-19.15-15.05-39.88-15.2-61.44-.37-52-.37-104.01-.23-156.01.05-20.37 7.85-27.88 27.85-28.09 21.96-.23 30.49 7 30.65 27.76.35 44.52.08 89.04.18 133.56.02 7.84-.2 15.81 1.03 23.51 7.72 48.56 46.02 71.85 93.55 57.08 22.22-6.91 38.42-21.17 50.12-40.99 2.87-4.86 2.97-9.88 2.97-15.12-.02-50.13-.05-100.27.04-150.4.01-5.58.31-11.25 1.29-16.73 2.07-11.56 8.87-17.48 20.77-18.35 5.23-.38 10.54-.37 15.76.09 11.62 1.02 18.32 7.37 20.07 19.05.77 5.15.96 10.43.96 15.66.06 79.69.05 159.38.03 239.07 0 13.88-2.66 16.73-16.66 18.07-21.61 2.08-36.66-9.59-40.7-31.41-.65-3.53.47-7.55-3.17-11.02zm678.46-204.78c15.97-21.5 35.21-36.94 60.17-44.4 77.83-23.25 143.69 24.14 146.02 106.53 1.5 53.09.56 106.26.31 159.39-.09 18.47-9.55 26.01-30.37 25.86-19.86-.14-28.3-7.57-28.42-26.47-.28-45.27-.19-90.55-.09-135.83.02-9.78-.66-19.51-2.7-29-9.18-42.76-44.72-62.66-89.42-50.25-15.14 4.2-28.26 11.89-39.19 23.24-11.02 11.44-17.32 23.88-16.95 40.88 1.07 48.99.48 98.03.33 147.04-.07 22.93-7.88 30.52-30.37 30.38-20.42-.13-28.73-8.1-28.76-28.7-.13-83.07.07-166.14-.25-249.2-.03-8.74 3.96-12.1 11.36-13.7 22.67-4.91 39.54 5.43 45.07 27.79 1.23 4.95 1.99 10.01 3.24 16.44zm501.99 251.98c-87.46 2.9-159.99-65.09-151.66-164.74 10.18-121.74 132.99-163.27 221.8-120.52 21.88 10.53 39.3 26.29 47.94 49.73 7.38 20.02-2.26 36.19-23.15 39.95-5.75 1.03-9.39.07-12.32-6.15-20.18-42.86-58.82-54.58-99.11-48.74-41.95 6.08-72.67 39.45-78.21 81.51-4.29 32.6 1.96 62.34 23.08 88.4 37.23 45.92 126.51 43.74 153.6-17.29 3.31-7.45 7.66-8.89 14.89-6.97 20.28 5.38 29 20.89 20.97 40.34-13.92 33.74-42.32 50.12-75.67 59.65-14.5 4.14-29.44 5.91-42.17 4.82zM181.21 149.47c-10.26 15.85-20.38 31.4-30.43 47.01-11.62 18.05-18.47 20.65-39.43 14.7-17.2-4.89-34.39-9.83-52.82-12.43 12.93 14.4 25.89 28.78 38.77 43.22 14.14 15.85 14.59 22.03 1.56 38.97-13.44 17.46-27.41 34.52-41.52 52.23 4.77 2.78 7.95-.23 10.95-1.36 18.94-7.13 37.69-14.74 56.6-21.98 15.54-5.95 20.68-4.41 31.6 7.75 16.75 18.65 33.69 37.12 51.98 57.24 0-5.48.11-9.25-.02-13.01-.74-21.3-1.6-42.61-2.27-63.91-.16-4.97.1-10.5 6.9-10.71 5.88-.19 7.06 4.56 7.55 9.29 3.53 33.83 7.07 67.65 10.53 101.49.56 5.47-.3 10.61-5.77 13.53-6.3 3.36-10.94-.29-14.92-4.35-20.72-21.16-41.8-42.01-61.64-63.97-8.3-9.18-15.7-10.16-26.53-5.84-26.1 10.4-52.57 19.9-78.9 29.74-3.16 1.18-6.31 2.39-9.54 3.35-7.07 2.1-14.65 3.66-19.49-3.44-4.36-6.39-1.31-13 2.75-18.72 17.11-24.13 34.3-48.2 51.5-72.27 9.48-13.26 9.52-14.35-1.69-26.74-18.1-20.01-36.32-39.91-54.47-59.88-2.27-2.49-4.56-5-6.53-7.72-4.78-6.61-8.76-13.77-3.22-21.58 5.28-7.45 12.99-7.73 21.26-5.39 28.12 7.98 56.39 15.48 84.39 23.86 9.89 2.96 15.71.91 21.34-7.95 15.05-23.68 31.05-46.76 46.76-70.03 2.08-3.09 4.52-5.98 7.03-8.73 4.25-4.65 9.36-7.96 15.93-6.02 6.49 1.92 9.51 7.26 10.16 13.55 2.32 22.67 4.35 45.37 6.48 68.07.98 10.42 1.94 20.84 2.86 31.27.77 8.75 5.08 13.98 13.75 16.94 17.82 6.07 35.98 10.62 54.57 13.19 6.73.93 9.35 3.07 8.06 9.9-.76 4-.57 8.2-.66 12.31-.29 13.31-.25 13.23-13.95 10.48-23.55-4.74-46.76-10.51-69.36-18.87-16.63-6.15-24.41-17.03-24.59-34.63-.17-16.81-1.62-33.61-2.56-50.41-.14-2.5.39-5.25-2.96-8.13zm820.82 4.4c3.2-6.04 5.59-11.04 8.41-15.77 17.35-29.07 52.45-42.44 84.86-32.44 25.81 7.97 35.5 40.06 18.05 59.64-4.5 5.06-8.3 6.62-15.26 2.43-30.91-18.62-65.39-8.11-81.65 24.11-8.4 16.65-11.93 34.57-13.13 52.93-2.71 41.48-.85 83.02-1.4 124.53-.3 22.92-7.96 30.49-30.45 30.35-20.36-.13-28.69-8.12-28.79-28.7-.21-42.27-.07-84.54-.07-126.81 0-40.4.33-80.8-.23-121.19-.14-10.37 4.47-13.98 13.53-15.22 23.09-3.17 37.69 6.56 43.09 29.19 1.21 5.07 1.86 10.26 3.04 16.96zm827.1 100.57c0 38.53-.02 77.06.02 115.59.01 10.43-.67 21.11-11.37 26.15-12.01 5.66-25 5.72-36.93-.56-9.46-4.99-10.78-14.57-10.78-24.29.02-45.64 0-91.27 0-136.91 0-32.54.05-65.09-.02-97.63-.02-10.53 1.18-21.12 11.67-26.09 11.93-5.64 25.1-5.86 36.96.3 9.4 4.89 10.44 14.8 10.43 24.48-.02 39.65 0 79.3 0 118.96z"/></svg>