<svg xmlns="http://www.w3.org/2000/svg" id="Layer_1" data-name="Layer 1" viewBox="0 0 2114.36 378.29"><defs><style>.cls-1{fill:#606060;stroke-width:0}</style></defs><g id="_6HSnrs.tif" data-name="6HSnrs.tif"><path d="M0 12.72c1.61-2.78 3.18-5.54 6.5-6.76 5.56-2.04 10.83.15 13.81 6.07 8.68 17.26 17.31 34.54 25.96 51.81 23.07 46.06 46.15 92.12 69.22 138.17.5.99 1.04 1.95 1.81 3.38 1.16-2.18 2.19-4.02 3.13-5.9 30.99-61.91 61.98-123.83 92.98-185.74.77-1.54 1.57-3.11 2.6-4.49 2.67-3.56 6.42-4.6 10.61-3.72 4.12.86 6.78 3.53 7.73 7.65.36 1.55.4 3.19.41 4.8.02 114.11.01 228.22.04 342.32 0 3.86-.52 7.43-3.63 10.12-3.22 2.78-6.89 3.31-10.78 1.84-3.8-1.44-6-4.29-6.46-8.35-.17-1.47-.1-2.97-.1-4.46V61.5c-1.59.75-1.79 2.19-2.34 3.3-27.8 55.45-55.57 110.91-83.35 166.36-1.16 2.32-2.21 4.72-4.4 6.35-5.61 4.16-12.84 2.22-16.18-4.44-9.5-18.93-18.95-37.88-28.43-56.81-18.57-37.1-37.15-74.19-55.73-111.28-.59-1.18-1.24-2.33-2.5-3.44v300.01c0 9.09-8.21 14.29-15.76 10.1-2.56-1.42-3.77-3.81-5.11-6.17V12.72zm290.44 176.4V17.99c0-9.34 3.38-12.66 12.83-12.66h342.82c9.14 0 12.75 3.66 12.75 12.9v341.89c0 9.16-3.72 12.93-12.79 12.93H303.23c-9.3 0-12.78-3.49-12.78-12.79V189.13zm347.37.36c0-53.07-.03-106.15.08-159.22 0-3.42-.88-4.27-4.28-4.27-106.07.09-212.14.09-318.21 0-3.31 0-4.33.73-4.32 4.23.1 105.9.1 211.8 0 317.7 0 3.42.89 4.28 4.28 4.27 106.07-.09 212.14-.09 318.21 0 3.34 0 4.33-.76 4.32-4.24-.12-52.83-.08-105.65-.08-158.48zm1476.55-.32c-.38 106.41-87.12 189.57-190.36 189.13-103.77-.44-191.02-85.72-188.53-193.82C1737.86 81.29 1823.91-2.48 1929.65.06c100.59 2.41 184.33 84.41 184.72 189.1zM1756.3 189c.53 94.03 75.92 166.55 165.08 168.29 94.92 1.85 170.51-74.59 171.93-165.44 1.45-92.43-73.22-170.61-167.96-170.9-93.05-.28-168.99 75.4-169.05 168.05zM1364.47 65.81v6.26c0 95.75.01 191.51 0 287.26 0 1.61.02 3.23-.19 4.82-.7 5.13-4.75 8.71-9.89 8.88-5.29.17-9.73-3.33-10.65-8.49-.22-1.21-.2-2.47-.2-3.7V17.02c0-7.56 4.41-12.12 11.28-11.68 4.42.28 7.29 2.75 9.09 6.66 15.46 33.5 30.92 67 46.4 100.49 30.33 65.63 60.68 131.26 91.03 196.89.5 1.08 1.08 2.11 2.51 3.1v-4.89c0-95.26 0-190.52.01-285.77 0-2.6-.06-5.23.27-7.8.61-4.88 4.43-8.36 9.21-8.7 5.23-.37 9.39 2.31 10.96 7.07.55 1.67.7 3.38.7 5.13-.01 114.36-.01 228.72-.02 343.08 0 7.52-3.99 12.3-10.38 12.41-4.91.09-8.17-2.44-10.17-6.77-15.42-33.38-30.84-66.76-46.27-100.14-30.38-65.75-60.77-131.49-91.16-197.24-.5-1.08-1.09-2.13-1.64-3.19-.3.04-.6.09-.9.13zM827.46 189.46c7.74 4.24 15.13 9.15 21.58 15.34 22.15 21.24 33.02 47.19 30.7 77.81-3.5 46.03-35.83 81.06-81.45 89.25-5 .9-10.1 1.19-15.2 1.19h-56.26c-8.55 0-12.6-3.99-12.61-12.46V17.63c0-8.36 3.98-12.31 12.28-12.31h58.49c41.63.02 81.41 31.02 91.65 71.41 11.42 45.04-7.08 88.29-47.51 111.12-.6.34-1.49.41-1.67 1.62zM735.26 102h-.01c0 24.3.06 48.6-.08 72.9-.02 3.15.89 3.88 3.93 3.85 14.4-.16 28.81-.07 43.21-.07 40.6-.01 73.74-30.85 76.56-71.24 2.95-42.31-29.91-79.35-72.44-81.11-15.74-.65-31.53-.12-47.3-.32-3.03-.04-3.97.68-3.95 3.84.14 24.05.08 48.1.08 72.15zm0 174.02c0 24.06.05 48.12-.06 72.18-.01 2.95.55 4.05 3.8 4.01 15.03-.18 30.06-.09 45.09-.08 4.11 0 8.2-.44 12.21-1.22 43.45-8.52 70.12-48.88 60.92-92.09-7.11-33.4-39.05-59.18-73.34-59.19-14.78 0-29.56.11-44.34-.08-3.42-.04-4.37.88-4.35 4.3.14 24.06.08 48.12.08 72.18zm273.92 6.43c0-26.54-.05-53.08.07-79.62.01-2.95-.74-3.85-3.76-4.31-43.35-6.55-76.68-39.82-82.41-83.15-7.15-54.13 30.18-99.76 79.09-108.6 54.22-9.8 106.17 27.52 113.75 81.97 7.15 51.34-26.57 98.76-77.54 109.11-2.72.55-6.48-.38-7.88 1.95-1.22 2.01-.35 5.3-.35 8.03 0 50.48 0 100.95-.01 151.43 0 1.73.09 3.5-.21 5.2-.95 5.38-5.89 9.01-11.37 8.53-5.55-.49-9.37-4.66-9.37-10.55-.04-26.66-.02-53.33-.01-79.99zm86.69-179.91c.01-42-34.23-76.46-75.97-76.46-42.14 0-76.53 34.11-76.82 76.19-.29 41.67 34.5 76.4 76.55 76.41 41.98 0 76.24-34.2 76.25-76.14zm68.1 86.17V18.31c0-9.61 3.36-12.99 12.91-12.99 34.66 0 69.31.02 103.97-.03 4.43 0 7.76 1.76 9.76 5.59 1.84 3.54 1.66 7.23-.6 10.61-2.25 3.38-5.54 4.62-9.59 4.61-30.18-.06-60.37-.03-90.55-.03q-4.98 0-4.98 4.9v143.61q0 4.71 4.86 4.71c30.43 0 60.87 0 91.3.01 5.38 0 9.22 2.94 10.4 7.78 1.18 4.84-1.04 9.72-5.41 11.9-2.07 1.03-4.28 1.12-6.53 1.12-30.06-.01-60.12.06-90.18-.08-3.54-.02-4.53.8-4.52 4.45.14 47.87.12 95.74.01 143.61 0 3.23.73 4.12 4.06 4.11 30.43-.14 60.87-.09 91.3-.06 8.38 0 13.49 6.6 10.97 14-1.42 4.18-5.13 6.82-10.03 6.89-6.09.09-12.17.02-18.26.02h-86.08c-9.26 0-12.8-3.55-12.8-12.81V188.71zm503.48 7.07v166.29c0 5.46-2.75 9.24-7.57 10.59-4.57 1.28-9.44-.7-11.88-4.78-1.27-2.12-1.36-4.44-1.36-6.81.02-106.52.02-213.03.02-319.55 0-4.09-.18-8.19.06-12.27.16-2.72-.85-3.23-3.36-3.22-21.98.09-43.97.07-65.95.04-6.84 0-11-4.26-10.81-10.9.17-5.81 4.27-9.78 10.36-9.82 8.69-.07 17.39-.02 26.08-.02 44.59 0 89.18.02 133.77-.02 4.39 0 7.76 1.65 9.73 5.57 1.94 3.85 1.66 7.71-.96 11.19-2.26 3-5.41 4.05-9.14 4.04-21.74-.06-43.47.04-65.21-.11-3.12-.02-3.86.79-3.86 3.87.1 55.3.07 110.61.07 165.91z" class="cls-1"/><path d="M559.93 189.49v72.9c0 8.19-3.88 12.11-12.07 12.12-48.93.02-97.86.02-146.79 0-7.89 0-11.97-4.08-11.97-11.87V115.71c0-7.92 3.91-11.82 11.91-11.82 48.93-.01 97.86-.01 146.79 0 8.5 0 12.12 3.7 12.12 12.33v73.28zm-85.52 63.93c20.24 0 40.47-.09 60.71.09 3.42.03 4.05-1.02 4.04-4.17-.1-40.16-.11-80.32 0-120.48 0-3.17-.64-4.17-4.05-4.16-40.35.13-80.7.12-121.05.02-3.08 0-4.19.49-4.18 3.96.15 40.28.15 80.57 0 120.85-.01 3.49 1.12 3.97 4.19 3.95 20.11-.12 40.22-.06 60.34-.06zm1450.67-149.53c46.99-.04 85.3 38.24 85.25 85.19-.05 47.18-38.37 85.48-85.49 85.44-46.63-.04-84.69-38.12-85.44-84.01-.75-46.14 37-87 85.68-86.62zm-.47 149.53c35.68.03 64.69-28.6 64.78-63.91.08-35.63-28.91-64.75-64.43-64.72-35.6.03-64.48 28.76-64.52 64.17-.04 35.59 28.67 64.43 64.17 64.46z" class="cls-1"/></g></svg>