<svg xmlns="http://www.w3.org/2000/svg" data-name="Layer 1" viewBox="0 0 2353.66 397.95"><path fill="#606060" d="M2091.71 81.96c-82.35 0-164.7-.22-247.04.27-10.5.06-12.96-2.89-12.53-12.87.82-19.07.59-38.22.07-57.31-.21-7.81 2.34-9.87 9.98-9.86 166.97.2 333.94.21 500.92-.04 8.48-.01 10.8 2.62 10.55 10.69-.58 18.66-1.12 37.38-.21 56 .53 10.84-2.7 13.43-13.32 13.37-82.8-.45-165.61-.25-248.41-.25zm-794.07 187.6c-7.31 36.88-15.18 73.67-21.62 110.7-2.06 11.85-7.73 15.25-18.33 14.81-6.81-.29-13.65-.05-20.47-.05-20.39 0-20.26-.03-24.3-20.5-11.42-57.96-22.93-115.9-34.47-173.83-4.07-20.46-2.81-22.2 17.75-22.16 34.18.07 27.15-2.56 33.05 27.16 5.82 29.34 11.03 58.8 18.52 88.3 6.48-33.22 13.44-66.35 19.18-99.69 1.97-11.44 5.83-17.23 18.28-15.97 9.01.91 18.23.73 27.27.04 11.05-.85 16.13 2.82 18.09 14.52 5.62 33.5 12.67 66.77 21.63 100.55 3.45-17.81 6.95-35.61 10.35-53.43 3.06-16.04 6.12-32.09 8.94-48.17 1.63-9.29 5.5-13.89 16.26-13.6 36.93 1 36.29-4.65 28.34 34.7-11.31 56.02-23.37 111.89-34.44 167.95-2.11 10.69-6.9 14.13-17.29 14.29-41.92.67-42.04.93-49.72-40.49-5.21-28.09-10.01-56.26-14.99-84.39-.68-.25-1.35-.5-2.03-.75zm1004 11.1c-7.16 23.62-14.33 47.23-21.5 70.85-1.58 5.22-3.23 10.41-4.76 15.65-9.33 31.87-3.77 25.45-35.2 26.6-9.32.34-12.43-3.88-14.69-12.1-8.84-32.18-18.37-64.18-30.91-95.95v38.14c0 19.11-.32 38.23.13 57.32.23 9.56-3.57 12.47-12.91 12.62-35.74.57-35.73.85-35.73-34.5 0-54.6.4-109.2-.28-163.79-.17-13.53 4.59-17.88 17.41-17.14 12.7.73 25.48.5 38.2.05 9.08-.33 13.92 2.57 16.38 12.09 8.52 32.93 17.91 65.63 27.16 98.37 1.28 4.53 1.45 9.83 6.57 13.5 10.58-37.03 21.33-73.42 31.19-110.06 2.7-10.02 6.85-14.68 17.71-13.99 13.14.84 26.38.44 39.57.12 9.08-.22 13.59 3.51 13.58 12.76-.05 63.7-.05 127.39 0 191.09 0 7.95-3.45 11.51-11.6 11.37-45.6-.84-36.74 6.21-37.45-35.67-.43-25.61-.08-51.23-.08-76.84l-2.81-.48zM759.2 300.49c0-34.75-.02-69.49 0-104.24.01-16.72.96-17.75 17.74-17.71 32.6.07 31.14-3.87 31.07 30.64-.11 55.47-.02 110.94-.04 166.41 0 17.79-.2 17.95-17.13 18.01q-40.29.16-56.1-36.73c-11.7-27.35-23.32-54.74-37.41-81.8-.2 3.71-.57 7.41-.58 11.12-.05 31.37-.33 62.75.14 94.11.16 10.45-3.37 14.85-14.05 14.85-41.96 0-34.36.91-34.55-32.67-.32-55.47.3-110.94-.37-166.41-.16-13.29 4.42-17.62 17.19-17.73 38.74-.32 38.81-.68 53.97 34.51 11.48 26.66 22.71 53.43 34.09 80.13 1.17 2.74 2.59 5.38 3.89 8.07l2.12-.55zm265.26-13.72c0-30.92.43-61.85-.22-92.76-.26-12.16 4.36-16.2 16.01-15.63 23.58 1.17 47.28-1.72 70.79 1.72 23.3 3.41 41.28 14.26 47.93 38.22 6.95 25.03 3.42 47.88-17.77 65.31-4.39 3.61-5.11 5.64-2.48 10.93 13.76 27.69 21.04 57.81 31.48 86.75 3.1 8.59-.77 13.3-9.54 13.58-10.9.34-21.82.06-32.74.1-7.14.03-10.37-4.06-12.22-10.48-5.14-17.86-10.46-35.67-16.04-53.39-1.75-5.57-3.91-11.22-7.03-16.11-2.68-4.21-7.35-7.55-12.79-6.03-6.34 1.78-3.37 7.64-3.43 11.62-.3 20.46-.46 40.93 0 61.38.2 9.02-3.24 12.22-12.01 11.72-9.07-.51-18.2-.44-27.27-.02-9.32.43-12.96-3.27-12.84-12.79.38-31.37.14-62.75.14-94.13zm61.17-64.81c-7.5-1.94-9.88 1.96-9.4 9.5.37 5.85-.58 11.84.26 17.59.79 5.48-4.43 14.25 4.83 15.75 10 1.61 20.05-.26 24.99-11.39 7.58-17.11-.73-30.14-20.68-31.44zm1039.1 63.13c.16 23.73-3.39 44.39-12.26 64.34-26.09 58.69-109 65.63-144.24 10.11-24.43-38.49-24.05-112.52 2.79-149.09 18.57-25.31 44.17-36.42 74.46-34.05 33.27 2.61 55.99 21.66 68.8 52.33 7.81 18.7 10.88 38.33 10.45 56.37zm-52.55 2.1c-2.16-14.36-1.37-30.42-7.48-45.48-4.97-12.26-12.83-21.39-26.75-21.78-14.68-.41-23.36 8.76-27.89 21.74-10.19 29.24-8.95 58.82-.47 88.11 4.63 15.98 14.91 24.02 27.67 24.03 12.3 0 23.18-8.94 28.34-23.76 4.67-13.42 5.28-27.52 6.57-42.85zm-1243.91-1.63c.85-27.12 5.03-53.26 21.74-75.86 36.47-49.32 111.75-43.78 138.85 11.45 19.93 40.62 20.26 83.45 3.04 125.22-14.22 34.5-46.89 54.07-80.68 51.3-38.88-3.19-67.72-28.62-77.85-68.91-3.55-14.14-4.53-28.65-5.11-43.2zm53.45 7.85c-.47 9.33 1.63 25.83 8.15 41.62 4.55 11.02 12.58 18.25 24.55 18.55 12.37.3 21.35-6.57 27.13-17.39 5.02-9.39 6.54-19.83 7.59-30.13 2.31-22.7 1.95-45.41-7-66.87-4.56-10.93-12.24-18.79-25.66-18.77-13 .02-21.1 6.41-26.48 17.65-7.26 15.18-8.28 31.33-8.29 55.34zm624.41-113.97c24.5 0 24.65-.05 32.22 23.23 19.06 58.58 37.74 117.29 57.14 175.76 3.92 11.83.99 16.02-11.07 15.72-46.4-1.16-34.74 7.41-47.3-35.41-2.55-8.69-5.95-12.94-15.82-12.13-12.19 1-24.53.55-36.78.12-6.52-.23-10.35 1.67-11.11 8.48-.2 1.76-1.16 3.42-1.71 5.15q-11 34.93-47.57 33.73c-13.07-.43-15.01-3.09-10.72-15.98 19.37-58.11 38.76-116.21 58.36-174.24 8.28-24.51 8.52-24.43 34.35-24.43zm.06 68.89c-.88.2-1.75.39-2.63.59-3.2 10.76-6.37 21.54-9.61 32.29-6.85 22.68-4.13 25.48 20.28 21.7 4.76-.74 6.26-2.1 4.92-6.88-4.46-15.86-8.66-31.79-12.95-47.7zm32.59-166.37c-39.57 0-79.15-.27-118.72.21-8.95.11-11.66-2.39-11.37-11.34.65-19.54.53-39.12.04-58.67-.2-7.72 2.13-10.01 9.92-9.98 80.97.26 161.94.26 242.9 0 7.78-.02 10.05 2.33 9.86 9.97-.48 19.55-.61 39.13.04 58.67.29 8.85-2.19 11.46-11.22 11.35-40.48-.49-80.97-.21-121.45-.21zM89.5 304.94c10.1-37.55 20.64-74.99 30.02-112.72 2.61-10.48 7.05-14.75 17.66-13.84 7.67.66 15.45-.02 23.17.16 13.65.31 15.96 3.52 11.97 16.76-13.88 46-27.86 91.96-41.78 137.94-4.86 16.05-10.01 32.01-14.38 48.19-2.5 9.25-7.31 13.4-17.2 13.74-36.43 1.25-36.58 1.55-47.16-33.2-16.77-55.05-33.32-110.19-49.91-165.31-4.35-14.46-1.75-17.84 13.55-18.15 36.18-.74 36.5-.83 46.04 33.06 8.69 30.86 16.6 61.95 24.86 92.94 1.06.14 2.11.29 3.17.43zm297.97-98.42c0 2.72.08 5.45-.01 8.17-.53 14.8-3.37 16.7-17.24 12.36-8.19-2.57-16.15-5.96-25.07-5.89-9.49.07-19.08.48-22.36 11.25-3.22 10.55 3.32 17.01 11.95 21.82 8.72 4.86 17.38 9.82 25.98 14.9 32.39 19.14 43.86 42.65 36.96 75.53-6.53 31.12-27.64 48.9-64.16 52.63-17.71 1.81-35.27-.04-52.22-6.53-7.98-3.06-11.99-7.67-10.55-16.36.22-1.33.04-2.73.12-4.09q1.69-30.46 30.15-21.51c7.84 2.46 15.86 4.33 24.14 3.39 8.56-.97 16.17-3.93 18.69-13.25 2.6-9.64.77-18.17-8.38-23.72-10.09-6.12-20.32-11.98-30.5-17.94-29.89-17.51-42.95-44.79-35.31-73.74 7.51-28.46 33.37-47.13 66.98-47.62 9.47-.14 19.1.77 28.44 2.45 22.74 4.07 23.33 5.16 22.4 28.14zm1403.79 80.27c1.94-43.5 14.12-81.59 57.03-101.98 28.28-13.44 57.35-10.66 86.31-1.51 5.77 1.82 7.63 5.67 7.37 11.37-.39 8.62-.16 17.28-.75 25.89-.8 11.56-5.79 14.57-16.04 9.32-10.33-5.3-21.05-8.76-32.59-7.63-29.09 2.85-43.88 22.02-46.23 58.89-.7 11 .55 21.83 3.28 32.37 8.61 33.26 38.71 46.67 72.03 32.4 17.2-7.36 19-6.2 19.57 12.6q1 33.3-39.62 38.24c-45.72 5.56-86.44-18.79-102.15-61.76-5.63-15.4-8.83-31.48-8.2-48.2zm-133.44-38.65c9.89-21.18 18.86-39.31 26.8-57.89 3.65-8.54 8.88-11.6 17.8-10.94 8.14.61 16.37.07 24.56.14 16 .14 17.44 2.19 10.67 16.32-14.9 31.1-29.49 62.37-45.26 93.03-7.09 13.78-10.84 27.46-10.04 42.96.82 15.88-.38 31.86.37 47.75.55 11.61-4.16 15.55-15.21 14.7-8.14-.62-16.38-.42-24.55-.05-9.49.43-12.92-3.89-12.74-13.11.36-19.1-.3-38.22.26-57.31.33-11.28-2.32-21.33-7.35-31.3-15.94-31.63-31.52-63.43-47.11-95.23-7.05-14.38-4.74-15.94 10.81-18.14 27.57-3.91 45.78 4.06 53.87 32.37 3.31 11.58 10.2 22.14 17.15 36.7zm-1124.3 58.01c0-24.12-.22-48.24.13-72.35.11-7.55-2.22-11.1-10.08-10.26-3.15.34-6.44.48-9.54-.04-7.68-1.29-18.2 4.59-22.58-4.21-5.31-10.67-2.61-23.21-1.32-34.84.57-5.14 6.26-5.91 11.02-5.91 39.13-.02 78.27.04 117.4-.05 8.56-.02 12.66 3.9 12.32 12.45-.04.91-.02 1.82 0 2.73.66 29.8.65 30.42-29.25 29.61-12.01-.32-15.33 2.87-15.13 15.03.76 46.4-.07 92.83.55 139.23.17 13.22-4.73 17.78-17.48 17.61-40.37-.53-35.83 3.47-36.02-35.78-.08-17.75-.01-35.49-.02-53.24zm-289.75-20.28c0 31.77-.2 63.55.12 95.32.1 9.43-3.47 12.77-12.88 12.54-46.58-1.16-38.96 7.08-39.32-38.11-.42-52.71-.11-105.43-.09-158.15 0-17.7 1.18-18.87 18.17-18.96q34.43-.17 34.38 33.6c-.03 24.58 0 49.17 0 73.75h-.38zm176.5.71c0-30.95.37-61.9-.19-92.84-.2-11.24 3.77-15.5 14.97-15.36 44.6.55 36.73-3.88 36.98 35.35.35 54.15.11 108.31.08 162.47 0 17.05-.36 17.34-17.78 17.39q-34.05.09-34.05-33.29v-73.73zM1791.85 44.94c-1.66 10.73 6.08 28.03-3.08 35.41-7.78 6.28-24.34 2.28-36.98 1.8-12.99-.49-30.27 5.75-37.71-2.64-6.42-7.25-2.53-24.17-2.14-36.78.41-13.45-6.08-31.42 2.94-39.03 7.8-6.59 25.21-2.35 38.33-1.92 12.51.41 28.64-5.71 36.53 2.68 7.16 7.62 1.51 23.42 2.11 35.6.04.91 0 1.82 0 4.88zm-41.89 298.84c28.8.09 25.07-2.25 24.99 25.69-.07 24.29 5.76 25.82-25.62 25.59-25.81-.19-25.9-.05-25.79-25.69.12-29.33-3.09-25.27 26.42-25.59z"/></svg>