<svg xmlns="http://www.w3.org/2000/svg" data-name="Layer 1" viewBox="0 0 1661.8 492.98"><path fill="#606060" d="M474.56 492.98c-3.83-.56-7.7-.97-11.49-1.71-27.35-5.31-47.72-20.05-60.96-44.7-10.36-19.29-17.49-39.81-23.81-60.66-9.64-31.82-16.66-64.29-24.16-96.66-12.6-54.39-25.5-108.71-38.6-162.98-3.8-15.76-9.9-30.73-19.9-43.78-4.83-6.3-10.54-11.63-18.46-13.73-11.62-3.08-21.6.3-30.24 8.28-6.23 5.76-10.57 12.86-14.18 20.45-8.63 18.18-13.48 37.45-16.16 57.27-3.2 23.6-6.09 47.25-8.98 70.89-2.56 20.96-4.91 41.95-7.37 62.92-3.61 30.85-6.84 61.76-14.92 91.9-5.71 21.3-13.36 41.76-27.07 59.29-20.74 26.53-47.56 43.39-81.17 48.36-18.84 2.79-37.42.47-55.63-4.89-3.53-1.04-7.04-2.15-10.5-3.41C3.38 477.04-.13 472.19 0 464.03c.2-11.8 3.13-22.92 9.33-33.05 4.74-7.74 11.93-10.04 20.7-7.57 7.15 2.01 14.48 3.87 21.85 4.58 29.68 2.86 52.8-10.24 65.97-36.87 8.05-16.27 12.67-33.66 15.41-51.45 3.96-25.78 7.18-51.68 10.61-77.54 3.47-26.19 6.83-52.39 10.21-78.6 2.24-17.4 4.08-34.85 6.75-52.18 4.56-29.6 13.86-57.5 32.35-81.56 16.11-20.97 37.15-34.65 63.27-39.73 15.48-3.01 30.44.07 44.83 5.94 26.74 10.9 44.52 30.8 56.62 56.46 10.4 22.06 17.28 45.27 22.73 68.93 13.12 56.93 25.68 114 39.27 170.82 6.61 27.65 14.87 54.91 22.72 82.25 2.82 9.82 7.37 19.06 13.93 26.99 3.11 3.76 6.94 7.28 11.13 9.74 7.27 4.26 14.23 2.55 18.53-4.66 3.12-5.22 5.51-11.06 7.18-16.93 4.24-14.96 6.05-30.42 6.56-45.89 1.41-42.91 2.01-85.84 3.52-128.74.85-24.03 2.12-48.1 4.59-72 3.71-35.86 13.79-69.82 34.29-100.07 18.48-27.27 42.6-47.14 74.56-56.72C637.36.05 658.22-1.13 679.38.96c13.42 1.33 26.53 4.01 39.46 7.83 9.3 2.74 15.84 6.57 15.33 21.88-.32 9.59-2.76 18.85-7.07 27.48-2.6 5.2-6.46 9.21-12.62 9.49-3.16.15-6.47-.55-9.55-1.45-16.66-4.86-33.54-7.99-50.99-6.66-24.73 1.88-44.85 11.97-59.21 32.81-15.72 22.82-24.44 48.07-27.88 75.39-3.12 24.78-3.98 49.68-4.51 74.6-.68 31.98-.79 63.98-2.17 95.93-1.02 23.68-3.11 47.36-5.81 70.91-2.17 18.96-7.72 37.16-19.13 52.92-13.03 17.99-30.5 28.55-52.94 30.28-1.07.08-2.12.39-3.17.6h-4.56zm648 0c-6.54-.87-13.14-1.45-19.62-2.66-14.86-2.78-28.47-8.45-39.8-18.72-17.84-16.18-23.95-36.82-22.33-60.21 2.41-34.91 28.59-55.23 55.96-62.21 11-2.81 22.2-3.88 33.52-3.88h46.5c-.44-9.18 1.06-18.1-1.61-26.78-4.07-13.21-16.38-22.4-31.44-23.32-19.47-1.19-37.98 1.67-54.9 12.33-9.66 6.09-20.36 4.9-27.99-2.12-10.44-9.6-8.16-27.86 4.58-35.49 15.46-9.26 32.21-14.93 50.12-16.97 13.82-1.57 27.68-2.15 41.57-.77 33.8 3.35 61.23 29.78 65.66 63.53.72 5.46 1.09 11.01 1.11 16.52.09 39.25.05 78.5.05 117.76 0 16.72-7.24 26.69-23.22 31.93-18.66 6.11-37.84 9.38-57.42 10.46-1.27.07-2.53.39-3.8.59h-16.93zm53.94-49.23V389c-.66-.06-1.08-.14-1.5-.14-16.49 0-32.99-.31-49.46.21-6.61.21-13.45 1.44-19.67 3.64-16.85 5.96-23.37 24.18-14.85 39.96 5.15 9.54 14.03 13.46 24.05 15.36 12.74 2.42 25.52 1.28 38.23-.36 7.8-1.01 15.53-2.6 23.2-3.92zm-468.79 49.23c-6.72-1.1-13.55-1.77-20.15-3.36-34.22-8.26-59.37-36.37-63.81-71.25-.85-6.64-1.26-13.38-1.32-20.08-.16-19.51-.24-39.03.03-58.55.25-17.9 4.65-34.76 14.66-49.82 13.86-20.85 33.63-32.8 58.09-36.93 19.38-3.27 38.64-2.23 56.9 5.46 29.33 12.35 46.12 35.01 51.93 65.94 2.72 14.48 2.05 29.19 1.28 43.79-.71 13.51-13.02 25.14-26.57 25.94-4.76.28-9.55.17-14.32.18-30.28.01-60.56 0-90.83 0h-4.21c.4 13.76.79 27.18 8.77 38.67 8.09 11.64 20.19 15.95 33.83 16.31 16.91.45 32.8-4.09 48.2-10.62 5.42-2.3 10.79-4.43 16.94-3.05 9.06 2.03 16.71 9.67 17.81 18.15 1.37 10.62-3.4 19.7-12.76 24.06-18.18 8.46-37.25 13.43-57.3 14.63-1.18.07-2.34.36-3.51.54h-13.68zm50.81-142.33c.06-11.8-1.21-23.03-6.09-33.57-4.94-10.68-13.15-17.6-24.58-20.5-8.54-2.16-17.21-2.22-25.81-.52-8.9 1.76-16.5 5.95-21.98 13.38-9.03 12.25-10.32 26.47-10.65 41.21h89.11zm538.57 142.33c-.48-.2-.95-.48-1.45-.59-11.54-2.48-19.03-11.51-19.31-23.31-.03-1.3-.01-2.6-.01-3.9V293.77c0-16.36 7.1-26.05 22.65-31.22 23.69-7.87 48-11.5 72.95-11.01 48.34.94 84.35 35.3 87.43 83.5.27 4.22.41 8.45.42 12.67.03 39.57.02 79.15.02 118.72 0 14.55-6.19 22.53-20.23 26.16-.18.05-.33.26-.49.4h-5.86c-2.84-1-5.88-1.63-8.47-3.07-8.75-4.87-12.15-12.78-12.14-22.49.02-29.59.02-59.17 0-88.76-.01-14.41.28-28.84-.22-43.24-.83-23.96-16.31-39.25-40.21-40.29-15.28-.67-30.26 1.45-45.13 4.81-2.94.66-3.65 1.88-3.65 4.77.09 53.54.07 107.08.06 160.62 0 2.06.02 4.13-.21 6.17-1.09 9.58-6.2 16.18-15.07 19.88-1.67.7-3.47 1.08-5.21 1.61h-5.86zm-442.85 0c-.47-.21-.93-.49-1.43-.61-17.56-4.13-24.84-22.92-14.47-37.65 18.84-26.76 37.77-53.47 56.67-80.2.81-1.14 1.6-2.3 2.48-3.57-7.84-11.05-15.6-22-23.38-32.96-11.54-16.26-23.16-32.47-34.61-48.8-10.05-14.34-2.56-33.48 14.44-37.27 9.23-2.06 18.73 2.01 24.68 10.74 14.54 21.3 29.04 42.64 43.55 63.96.85 1.24 1.73 2.47 2.79 3.99 1.08-1.57 1.99-2.89 2.9-4.22 14.7-21.59 29.33-43.22 44.14-64.74 10.01-14.55 31.87-13.39 40.08 2.09 4.76 8.99 3.83 17.74-2.04 26.01l-50.43 71.07c-2.38 3.35-4.75 6.71-7.2 10.17 7.56 10.7 15.05 21.32 22.55 31.94 12.26 17.35 24.18 34.95 36.9 51.96 11.22 15.01 1.58 34.55-14.83 37.51-.5.09-.97.38-1.46.58h-5.86c-9.26-1.69-14.87-7.76-19.85-15.3-14.03-21.25-28.5-42.21-42.8-63.28-.64-.94-1.32-1.85-2.13-2.98-.97 1.39-1.72 2.45-2.44 3.52-14.06 20.71-28.27 41.32-42.08 62.2-5.1 7.71-10.89 13.93-20.3 15.85h-5.86zm717.68 0c-6.14-.65-12.3-1.14-18.41-1.98-13.92-1.91-27.5-5.26-40.09-11.64-8.76-4.44-13.71-11.79-12.98-21.81.7-9.72 6.08-16.48 15.16-20.12 6.55-2.62 12.85-1.25 18.84 1.74 15.62 7.79 32.27 10.66 49.52 10.01 5.65-.21 11.48-1.3 16.82-3.18 17.71-6.21 17.41-29.83 5.74-37.9-5.62-3.89-12.02-6.87-18.42-9.39-14.51-5.72-29.31-10.67-43.85-16.33-27.4-10.67-42.04-32.83-41.6-62.34.47-31.45 20.71-56.35 52.79-65.19 12.31-3.39 24.84-3.66 37.45-3.22 18.06.63 35.5 3.89 51.99 11.65 14.62 6.88 18.75 24.5 8.26 36.03-6.52 7.17-16.7 9.16-26.98 4.79-14.19-6.03-28.99-8.74-44.32-9.07-6.47-.14-12.79.63-18.69 3.46-7.85 3.76-12.49 9.92-13.32 18.65-.87 9.08 2.62 16.55 10.48 20.82 6.78 3.68 14.34 5.98 21.67 8.57 13.38 4.72 27.12 8.52 40.2 13.92 20.05 8.27 33.44 22.84 37.99 44.59.64 3.06 1.08 6.16 1.62 9.24v13.01c-1.39 5.86-2.17 11.95-4.28 17.55-9.58 25.38-28.88 39.46-54.64 45.52-5.45 1.28-11.08 1.79-16.63 2.65h-14.33z"/></svg>