<svg xmlns="http://www.w3.org/2000/svg" data-name="Layer 1" viewBox="0 0 2273.71 682.65"><path fill="#606060" d="M1522.18 259.2c13.97-1.74 17.11 5.53 14.06 17.29-3.85 14.85-10.21 29.37-11.75 44.41-2.6 25.45-4.87 51.46-2.37 76.75 2.24 22.69 35.85 36.23 55.83 24.97 2.66-1.5 5.09-8.21 3.91-10.92-6.94-16.04-5.15-31.91 3.21-45.74 41.72-69 99.51-115.05 182.96-121.65 27.12-2.14 31.45 3.93 25.65 30.89-1.88 8.75-4.49 17.34-7.21 27.67 20.11-16.12 29.68-34.35 33.96-58.74 7.42-42.28 18.12-84.3 31.38-125.16 14.56-44.86 45.65-79.5 80.49-110.55 3.71-3.3 8.28-5.64 12.46-8.42 1.31.68 2.61 1.36 3.92 2.04-3.13 16.69-5.38 33.6-9.54 50.03-16.7 65.96-46.43 126.77-75.69 187.74-20.04 41.76-27.01 85.74-21.08 131.64 2.62 20.33 22.18 40.84 42.78 43 27.57 2.89 54.73.2 80.64-10.91 11.58-4.97 15.35-11.22 10.87-24.53-6.83-20.32-12.38-41.39-15.39-62.57-3.95-27.82 7.84-51.46 32.23-64.16 26.58-13.83 55.01-25.35 83.92-33.12 24.53-6.6 44.52 8.47 60.12 26.58 14.41 16.73 14 36.1 5.4 55.47-10.84 24.41-29.27 42.37-50.3 58.19-20.66 15.53-40.92 31.58-62.81 48.52 27.02 28.94 58.49 42.92 95.92 42.08 39.54-.89 74.64-16.75 108.58-35.38 11.67-6.4 23.02-13.37 34.87-20.29 7.93 9.46 4.38 16.54-2.5 20.62-39.19 23.25-77.49 48.53-123.52 57.21-48.18 9.09-90.38-4.87-124.97-37.4-18.55-17.44-32.63-20.79-55.23-7.67-24.52 14.23-52.72 20.05-81.82 20-18.62-.03-31.95-7.87-42.91-22.12-15.57-20.24-20.75-43.91-24.26-68.31-1.19-8.28-2.84-16.49-4.28-24.73-1.92-.92-3.85-1.85-5.77-2.77-4.53 6.02-8.1 13.2-13.75 17.89-36.98 30.64-72.78 63.12-112.3 90.16-24.47 16.74-54.72 23.18-84.42 5.74-3.7-2.17-11.09-.76-15.56 1.44-33 16.22-57.33 8.35-73.28-24.83-5.3-11.02-9.64-22.5-14.03-32.85-15.59 12.72-30.29 24.87-45.17 36.8-24.33 19.5-51.62 16.97-78.07 7.41-32.15-11.61-64.72 7.99-68.88 41.25-6.77 54.2-14.68 108.31-23.97 162.14-5.66 32.81-26.26 49.69-53.11 48.25-26.17-1.41-53.97-27.4-56.8-55.08-3.08-30.15-.69-60.03 18.72-85.08 24.02-30.98 49.56-60.8 73.95-91.5 4.55-5.72 9.62-13.21 9.7-19.94.76-61.82 4.88-123.78-5.21-185.29-.3-1.81-.93-3.57-2.22-8.43-6.11 6.02-11.72 10.15-15.53 15.53-22.18 31.34-43.6 63.22-65.94 94.44-20.37 28.47-40.65 57.11-62.78 84.2-14.85 18.18-31.74 20.16-49.76 10.39 20.59-22.47 42.15-44.15 61.54-67.6 26.52-32.07 57.71-60.64 76.06-99.03 11.58-24.23 23.43-48.36 35.99-72.09 2.76-5.22 9.25-8.38 13.62-12.89 3.85-3.97 8.48-7.97 10.38-12.88 3.79-9.78 6.26-20.11 8.69-30.36 2.07-8.74 8.39-11.24 15.02-8.18 4.45 2.05 9.78 8.47 9.75 12.91-.27 44.49-2.7 88.98-2.25 133.45.41 39.78 3.64 79.54 5.72 119.31.22 4.12 1.06 8.21 1.88 14.32 15.25-5.28 29.02-10.04 44.34-15.34-14.27-18.44-9.81-35.77-.27-52.1 26.55-45.46 61.75-83.53 105.88-112.03 13.57-8.77 32.21-12.13 48.82-13.16 17.35-1.08 26.81 16 21.8 33.44-3.83-3.43-9.03-6.15-11.18-10.41-4.2-8.3-10.53-9.57-17.94-7.24-7.25 2.29-14.54 5.19-20.98 9.17-36.78 22.74-67.87 51.65-91.71 87.78-5.73 8.68-10.78 18.42-13.3 28.38-2.09 8.27-.01 17.59.22 26.44 1.7.39 3.41.77 5.11 1.16 53.42-41.21 101.08-88.85 149.49-135.65zm98.7 162.03c7.65-.74 16.07.33 22.83-2.52 38.63-16.29 69.32-44.17 101.49-70.05 18.6-14.96 26.3-33.19 25.54-56.31-.7-21.31-6.57-27.6-27.47-23.14-37.28 7.95-71.91 22.15-96.04 53.46-13.72 17.81-26.34 36.61-37.78 55.94-4.25 7.17-3.72 17.15-5.37 25.85l4.05 1.17c9.84-8.46 19.67-16.92 31.41-27.01 5.95 21.45-12.42 26.14-18.66 42.61zm367.43-94.11c1.94 10.29 3.1 20.81 5.96 30.84 7.77 27.23 20.92 32.54 45.94 18.41 36.12-20.4 58.38-53.54 77.48-88.53 9.96-18.24-1.7-35.16-23.31-37.43-24.7-2.59-47.73 4.03-69.18 15.5-24.08 12.87-35.92 33.63-36.89 61.21zm-727.54 152.3c-26.71 28.26-52.01 53.25-66.58 86.32-9.21 20.9-14.37 42.82-8.04 65.74 4.6 16.67 16.9 25.54 32.73 24.43 14.88-1.05 27.58-12.76 29.66-28.48 4.33-32.76 8.75-65.52 11.98-98.4 1.48-15.03.25-30.33.25-49.61zm254.7-188.03c-47.41 41.78-93.21 82.14-140.49 123.8 49.46 11.39 139.09-68 140.49-123.8zm392.55-214.14c-36.88 40.97-58.42 88.8-62.04 144.18 38.22-40.39 36.82-97.78 62.04-144.18zM364.31 295.66c10.07-7.01 17.63-12.26 25.19-17.52 1.68.98 3.37 1.96 5.05 2.94-2.02 8.18-2.55 17.14-6.33 24.41-10.84 20.84-23.58 40.7-34.42 61.54-5.68 10.92-10.54 22.77-12.87 34.76-2.76 14.21 8.33 25.07 21.52 20.32 32.44-11.68 64.22-25.24 95.89-38.91 4.27-1.84 8.99-8.55 9.12-13.13 1.62-58.72 25.16-111.92 41.44-166.92 18.81-63.55 51.08-119 101.84-162.41 15.16-12.96 31.82-25.82 50.03-33.27 56.17-22.97 87.25 13.96 85.46 64.92-1.56 44.74-23.17 83.16-43 122.37-39.32 77.74-105.73 127.93-174.04 176.68-17.28 12.34-17.37 27.38.74 39.28 24.62 16.19 52.18 16.04 79.43 11 16.81-3.11 32.82-10.54 50.68-16.54-15.78-18.73-9.84-36.95.25-53.91 26.13-43.93 60.87-80.29 102.77-109.42 9.93-6.9 22.4-11.72 34.35-13.84 27.09-4.81 39.42 6.12 41.11 34.11 12.92.5 13.55 7.62 10.92 18.57-6.57 27.39-12.28 55-17.68 82.65-1.26 6.44-.24 13.42.29 20.1 3.05 38.82 33.89 56.29 68.24 37.43 14.12-7.76 26.17-19.28 39.09-29.18 3.97-3.05 7.72-6.39 11.56-9.6 1.73.95 3.46 1.91 5.19 2.86-2.58 6.06-3.48 14.22-8.02 17.8-20.64 16.3-41.36 32.87-63.86 46.34-21.97 13.14-47.71 4.66-60.75-18.1-8.01-13.98-13.68-29.29-19.46-41.94-18.07 14-35.4 29.76-54.96 41.96-21.74 13.56-45.45 12.44-68.73 1.09-4.64-2.26-11.09-3.04-16.13-1.91-29.06 6.48-58.15 12.98-86.83 20.9-40.48 11.18-71.28-.63-94.85-35.01-13.82-20.16-14.68-19.86-37.95-10.74-26.84 10.52-53.45 21.61-80.27 32.15-6.67 2.62-13.69 4.61-20.73 6.04-19.59 3.98-28.7-2.48-32.23-23.12-8.23 5.21-15.57 11.87-24.19 14.89-20.23 7.1-40.88 13.29-61.72 18.32-27.38 6.61-55.1 11.87-82.71 17.51-26.77 5.47-53.39 12.45-80.45 15.56-31.66 3.64-51.76-12.49-58.99-44.03-8.34-36.4-.04-71.14 16.17-103.22 32.5-64.33 85.18-99.89 158.38-102.21 5.67-.18 11.78 4.39 17.04 7.75 1.12.72.15 8.1-1.11 8.51-5.94 1.89-13.54 5.13-18.33 2.98-24.47-11.01-45.88-4.86-66.8 8.64-50.03 32.29-78.74 76.36-76.86 137.48 1.24 40.43 20.77 58.37 60.52 53.2 25.2-3.28 49.99-9.6 75.08-13.84 9.54-1.61 12.24-6.47 12.97-15.39 2.77-33.93 12.7-65.72 29.98-95.24 24.55-41.95 61.48-63.4 109.61-66.6 8.16-.54 16.34-.9 24.51-1.26 18.51-.81 19.57.22 19.84 18.91.05 3.71 0 7.42 0 13.3zm360.2-217.7c-.99-10-1.06-20.19-3.15-29.95-5.11-23.82-21.62-32.17-45.33-26.1-31.05 7.95-51.17 29.12-69.34 53.23-49.44 65.64-83.26 138.77-104.24 217.89-4.4 16.58-7.5 33.7-9.1 50.77-1.37 14.61 5.74 18.1 18.71 10.57 82.3-47.85 145.75-113.74 189.45-198.19 12.62-24.4 22.38-49.94 23-78.21zM198.73 400.21c3.19 7.56 4.6 17.35 10.25 21.82 3.19 2.53 14.47-2.12 20.16-6.21 24.5-17.63 50.39-34.13 71.65-55.19 16.54-16.38 28.82-37.95 39.52-58.97 7.73-15.18-1.42-25.91-18.31-24.24-58.3 5.75-117.92 51.67-123.27 122.79zm477.1-25.33c4.88 2.6 9.64 6.97 14.68 7.3 4.6.31 10.32-2.77 14.12-6.02 32.83-28.03 65.77-55.97 97.66-85.04 8.14-7.42 14.26-18.14 18.46-28.5 4.88-12.01-2.19-20.74-15-18.33-11.47 2.16-23.25 6.61-33.05 12.91-40.12 25.79-69.03 61.93-91.77 103.27-1.8 3.27-2.56 7.11-5.1 14.4zm133.98-64.82c-1.77 1.54-3.6 3.02-5.3 4.63-30.9 29.33-61.84 58.63-92.59 88.13-2.11 2.02-4.66 7.01-3.84 8 2.53 3.04 6.37 6.25 10.1 6.83 18.83 2.93 33.72-5.34 45.76-18.78 22.7-25.34 34.42-56.73 45.87-88.81zM249.82 429.11c30.29 1.07 93.75-60.59 100.19-97.38-32.99 32.07-66.71 64.84-100.19 97.38zm1090.9-409.98c.23 13.21-20.45 39.9-29.89 41.94-8.31 1.8-13.15-3-10.83-10.18 4.33-13.35 10.17-26.33 16.76-38.74 1.64-3.08 9.86-5.89 12.76-4.39 5.26 2.72 8.8 8.76 11.19 11.37z" data-name="5MuLMC.tif"/></svg>