<svg xmlns="http://www.w3.org/2000/svg" id="Layer_1" data-name="Layer 1" viewBox="0 0 1324.82 531.05"><defs><style>.cls-1{fill:#606060;stroke-width:0}</style></defs><g id="yakjhu.tif"><path d="M692.46 337.83c20.97-2.05 37.72-2.94 53.33 15.33 14.52 16.99 38.32 13.72 58.63 6.94 18.3-6.1 25.42-21.1 26.35-39.74.47-9.27 1.92-18.46-.54-27.97-40.2 36.15-89.29 34.97-120.88-3.02-15.27-18.36-18.95-40.93-19.52-63.83-.68-27.17.11-54.37-.34-81.55-.14-8.45 1.47-11.98 11.15-12.36 29.79-1.18 29.69-1.69 29.79 27.79.09 24.65-.45 49.34.81 73.94 1.54 30.17 19.2 47.01 47.79 47.74 29.21.75 49.36-16.35 51.16-46.23 1.75-28.97 1.62-58.1 1.15-87.14-.19-11.83 2.23-16.53 15.37-16.16 25.72.73 25.81-.12 25.73 25.92-.17 53.1.48 106.22-.92 159.29-1.23 46.68-27.67 75.69-71.01 81.47-56.31 7.51-92.71-12.5-108.05-60.42zm-493.37-42.78c0 33.48-.35 66.97.09 100.44.69 53.13 40.56 93.29 92.04 93.31 50.93.03 89.66-40.52 90.06-94.33.08-10.74-.26-21.49.12-32.21.23-6.61-3.04-15.73 4.91-18.74 10.67-4.04 22.44-2.81 33.63-.43 3.34.71 3.93 4.63 3.9 7.87-.3 37.66 4.67 76.11-15.77 110.86-25.64 43.61-64.06 67.91-114.55 69.17-49.85 1.25-88.85-20.61-116-62.88-15.56-24.23-21.01-51.05-21.11-79.18-.23-64.44.37-128.88-.39-193.31-.19-16.16 2.43-23.63 21.35-23.12 17.03.46 22.92 4.35 22.13 22.11-1.48 33.42-.43 66.94-.42 100.43z" class="cls-1"/><path d="M0 134.49C-1.1 35.14 100.26-29.11 192.53 13.62c63.1 29.23 124.77 61.51 187.81 90.88 18.12 8.44 8.64 16.97 4.19 26.33-4.64 9.74-6.6 20.95-23.84 12.09-59.6-30.64-120.17-59.41-180.47-88.7-48.58-23.6-94.67-11.96-123.16 30.81-25.82 38.75-15.83 94.69 22.9 121.04 15.57 10.59 32.88 18.86 50.03 26.84 10.45 4.86 12.26 9.68 7.24 20.12-12.22 25.38-11.76 25.69-37.67 13.22-29.79-14.34-58.16-30.23-77.21-58.98C7.59 184.97.25 160.94 0 134.49z" class="cls-1"/><path d="M449.99.01c61.52 1.04 114.4 43.38 127.39 104.66 12.48 58.88-11.56 117.78-68.3 145.99-63.48 31.56-127.56 61.92-190.86 93.82-22.33 11.25-19.43-9.72-26.34-18.05-9.27-11.16-1.63-15.62 8.14-20.26 61.15-29.07 122.43-57.89 183.03-88.06 57.08-28.41 73.53-93.37 37.05-141.25-23.72-31.14-67.42-44.04-103.92-29.81-16.47 6.42-32.5 14.09-48.32 22.02-11.61 5.81-13.79-3.58-15.72-9.88-2.52-8.22-17.61-17.42-3.43-25.5C380.02 15.85 412.35-.49 449.99.01zm866.61 263.31c-17.89 38.48-46.86 55.52-84.96 57.03-42.51 1.68-76.67-13.84-95.97-53.78-17.39-35.98-9.78-82.34 17.28-110.98 25.45-26.93 75-36.58 112.76-21.96 35.43 13.72 57.89 48.54 59.09 89.27.37 12.42-3.07 15.97-15.63 15.73-41.8-.8-83.63.22-125.43-.58-14.68-.28-14.01 5.42-9.53 15.51 12.29 27.7 56.44 42.21 82.85 22.26 18.82-14.21 36.96-11.49 59.54-12.49zM1225.52 204c13.95 0 27.95-.76 41.83.21 14.37 1 12.58-6.45 8.21-14.4-11.03-20.11-30.53-25.72-51.31-25.69-21.42.02-39.07 8.86-49.33 29.09-3.98 7.84-2.9 11.3 6.86 10.93 14.56-.54 29.16-.14 43.74-.14zm-128.6 52.5v34.12c0 24.05-10.44 31.38-34.1 24.96-9.12-2.48-5.01-8.99-5.23-13.67-1.51-31.5 2.39-63.15-2.4-94.57-4.49-29.49-23-44.97-51.85-43.61-27.17 1.28-46.55 20.35-47.62 49.09-1.03 27.77.09 55.61-.48 83.4-.13 6.22 4.65 16.56-3.53 18.23-11.41 2.34-23.79.23-35.71-.61-.82-.06-1.85-5.47-1.79-8.37.74-34.69-2.31-69.47 2.41-104.06 6.75-49.43 40.73-76.27 94.4-74.6 50.05 1.56 82.42 31.85 85.09 80.44.9 16.37.14 32.83.14 49.25h.65z" class="cls-1"/></g></svg>