<svg xmlns="http://www.w3.org/2000/svg" id="Layer_1" data-name="Layer 1" viewBox="0 0 717.12 722.18"><defs><style>.cls-1{fill:#606060;stroke-width:0}</style></defs><g id="CMEgrj.tif"><path d="M153.45 162.6c39.27 61.83 78.27 123.23 117.67 185.27 1.68-2.94 1.04-5.51 1.04-7.88.04-81.66.11-163.32-.12-244.98-.02-5.75 1.35-8.48 7.09-9.71 12.78-2.74 25.13-7.09 38.53-7.44 4.95-.13 10.33-2.34 15.64-3.12 2.96-.43 4.54.3 4.17 3.62-.16 1.4-.03 2.84-.03 4.26 0 153.14-.05 306.29.17 459.43 0 6.96-1.39 8.94-8.68 9.01-7.66.08-11.63-2.51-15.55-8.89-51.57-83.97-103.45-167.74-155.26-251.56-1.32-2.14-2.77-4.21-4.9-7.46-4.59 16.06-9.7 30.48-11.86 45.97-2.86 20.47-3.03 41.06-.93 61.23 2.39 22.89 9.86 45.01 19.88 66 7.57 15.84 16.67 30.7 27.59 44.49 28.5 36.02 65.59 59.14 108.68 73.75 11.53 3.91 23.28 5.81 35.18 7.31 4.21.53 5.93 1.78 5.85 6.5-.33 18.22-.31 36.45-.02 54.67.08 4.85-1.33 5.85-5.96 5.39-58.3-5.83-110.03-27.38-154.81-65.12-53.96-45.47-87-103.22-99.46-172.63-5.49-30.56-6.2-61.29-1.27-92.04 9.45-59.02 34.72-110.33 75.19-154.24.47-.51 1.07-.9 2.19-1.82z" class="cls-1"/><path d="M0 337.1c.63-65.37 29.5-144.78 88.32-212.4C148.94 55.01 225.66 13.4 317.49 2.75c104.67-12.14 198.3 15.91 278.9 84.29 10.32 8.76 21.49 17.15 29.48 28.89 5.21 7.65 13.08 13.42 19.08 20.75 3.49 4.25 2.68 6.34-.82 9.66-8.75 8.31-17.32 16.83-25.59 25.61-3.36 3.56-4.81 3.23-7.73-.59-31.46-41.2-70.7-72.92-117.79-94.57-34.83-16.02-71.31-25.35-109.83-27.89-83.81-5.54-158.06 18.43-222.3 71.73-63.32 52.54-100.36 120.41-110.7 202.23-20.48 161.93 86.66 309.3 241.65 344.69 13.16 3 26.46 5.26 39.9 6.26 4.64.34 5.93 1.8 5.79 6.38-.34 11.82-.51 23.68.05 35.49.3 6.27-2.25 6.87-7.36 6.37-39.12-3.82-76.88-12.92-112.96-28.67-32.97-14.39-63.63-32.74-90.28-56.86-11.18-10.12-22.16-20.69-32.61-31.82-26.42-28.15-46.7-59.91-62.68-94.67C10.37 463.65 0 414 0 337.1z" class="cls-1"/><path d="M531.1 323.72c-20.36 20.46-40.74 40.89-61.03 61.41-2.36 2.39-4.83 3.37-8.15 3.28-7.1-.19-14.21.14-21.3-.14-3.93-.15-5.43.93-5.27 5.09.31 7.8.09 15.62.09 23.43 0 71.96-.09 143.92.16 215.88.02 6.25-1.86 8.54-7.83 9.75-17.4 3.54-34.87 6.31-52.59 7.58-4.18.3-6.19-.65-5.71-5.31.38-3.75.08-7.57.08-11.35V81.58c0-8.75-.02-8.5 8.91-7.87 59.23 4.13 112.66 23.61 159.75 60 20.15 15.58 37.72 33.7 53.32 53.81 3.7 4.77 3.99 8.11-.66 12.6-12.77 12.32-25.25 24.96-37.5 37.8-3.92 4.11-5.5 3.6-8.59-.94-26.5-38.87-61.94-66.5-105.88-83.26-.85-.32-1.74-.53-2.68-.82-1.39 2.41-.73 4.78-.73 7.01-.05 51.6.12 103.2-.23 154.8-.05 6.7 2.13 7.51 7.94 7.47 28.87-.21 57.74.02 86.62.09.43.48.87.95 1.3 1.43z" class="cls-1"/><path d="M499.14 614.4c0-75.1.02-148.9-.08-222.69 0-3.16 1.1-5.28 3.22-7.39 19.63-19.51 39.23-39.05 58.73-58.67 2.16-2.17 4.3-3.21 7.41-3.2 24.6.11 49.2.09 73.81.02 2.95 0 4.81.31 5.11 3.95 1.5 18.01 2.87 35.98 1.74 54.12-.4 6.46-2.59 7.52-8.4 7.44-23.18-.33-46.37 0-69.55-.24-4.96-.05-7.12.72-6.85 6.43.51 11.09.37 22.24.04 33.34-.14 4.62 1.12 6.05 5.86 5.99 20.81-.25 41.63-.11 62.45-.1 8.07 0 8.13.03 5.7 8.07-5.59 18.5-12.67 36.41-21.45 53.65-1.63 3.2-3.9 3.42-6.91 3.4-13.25-.11-26.5.16-39.74-.16-4.69-.11-5.96 1.3-5.9 5.93.25 18.68.12 37.38.08 56.06 0 2.51.57 5.05-1.72 7.24-18.91 18.06-39.51 33.79-63.55 46.82zm174.11-387.04c-4.18 1.59-8.45 3.01-12.51 4.85-2.77 1.26-4.15.78-5.37-2.05-1.28-2.97.4-3.73 2.51-4.58 7.65-3.07 15.27-6.2 22.93-9.23 1.59-.63 3.27-2.4 5.03-.47 1.45 1.58 1.29 3.62.41 5.33-1.83 3.55-3.86 6.99-5.9 10.43-1.67 2.82-3.46 5.56-5.66 9.09 6.15-.22 10.46-3.18 15.13-4.89 2.46-.9 4.14-1.6 5.58 1.64 1.52 3.41-.44 4.03-2.76 4.97-7.44 2.98-14.81 6.16-22.32 8.97-1.8.67-3.97 3.69-6.01.33-1.53-2.53-1.84-4.93.2-7.76 3.57-4.96 6.58-10.32 9.83-15.52.19-.5.38-1 .56-1.51-.55.14-1.09.27-1.64.41zm-1.38 306.26c-1.05 6.2-5.42 11.35-8.69 17.01-1.27 2.2-2.9.33-4.18-.42-7.54-4.36-15.01-8.84-22.57-13.16-2.37-1.35-3.79-2.4-1.64-5.31 2.51-3.39 4.18-7.42 6.78-10.72 4.44-5.63 10.83-5.61 14.7.27 1.74 2.64 2.86 3.03 5.9 2.67 5.15-.6 9.68 4.15 9.7 9.65zm-11.58-3.21c-3.53 1.33-5.5 4.58-5.89 7.88-.23 1.95 3.42 3.92 5.35 3.5 3.5-.76 4.7-4.41 4.99-7.58.2-2.15-1.81-3.65-4.45-3.8zm-11.88-5.96c-3.32.81-5.04 3.68-5.53 6.49-.48 2.74 3.11 4.14 4.81 3.84 3.24-.58 4.33-3.97 4.62-6.98.21-2.19-1.7-3.09-3.89-3.35zM392.79 701.12c-.36-4.94-.69-9.88-1.1-14.81-.2-2.43.18-4.03 3.22-4.19 2.8-.15 3.71.86 3.84 3.54.4 8.49.9 16.97 1.54 25.45.19 2.53-1.52 3.19-3.09 4.15-2.35 1.44-3.28-.37-4.49-1.88-4.37-5.45-8.82-10.82-14.08-17.25 0 6.05-.13 11.01.05 15.95.1 2.76.58 5.27-3.45 5.39-3.62.11-3.47-2.26-3.59-4.7-.42-8.02-.97-16.03-1.32-24.05-.08-1.88-1.4-4.45 1.78-5.29 2.71-.71 4.96-.37 6.85 2.15 4.06 5.43 8.36 10.68 12.56 16.01.43-.15.85-.31 1.28-.46zm197.35-421.19c.05 12.88-6.07 20.11-16.64 19.69-.46-.02-.94.04-1.4-.03-8.39-1.24-13.62-11.94-11.88-24.27 1.42-10.1 8.38-16.13 17.13-14.87 7.71 1.12 12.75 8.78 12.79 19.47zm-22.47 1.33c.04.94.13 1.89.12 2.83-.06 4.73 2.59 7.58 6.9 8.13 4.33.55 6.13-2.75 6.92-6.53.34-1.61.84-3.3.68-4.89-.53-5.23.34-11.55-6.81-13.04-4.53-.94-7.49 3.98-7.79 12.08-.02.47 0 .94 0 1.42zM478.2 697.31c-3.97 3.3-7.32 3.45-10.77-.11-1.79-1.85-4-3.29-5.97-4.98-1.15-.99-2.42-1.72-3.82-.86-1.62 1.01-.27 2.49-.37 3.75-.25 3.28 6.03 8.06-1.18 9.64-6.35 1.39-4.47-5.23-5.71-8.26-2.41-5.86-3.46-12.26-5.81-18.15-1.79-4.48-.1-5.93 3.8-6.84 3.89-.91 7.7-2.19 11.61-3.03 4.67-1 7.69 2.12 10.04 5.27 2.13 2.87 3.17 6.7.37 9.83-3.58 4-1.84 6.28 1.8 8.66 2.12 1.39 3.91 3.27 6.02 5.08zm-19.68-22.17c-1.19 1.9-6.45-.79-5.84 4.23.24 2-.17 6.16 3.62 5.72 3.31-.38 7.65-.93 8.1-5.43.3-2.94-1.97-4.61-5.88-4.53zm228.72-356.3c-2.87.22-4.18.4-5.46-.67-2.52-2.1-4.55-15-2.58-18.87 2.7-5.29 7.07-6.91 12.33-4.13 2.89 1.53 3.06-.96 4.25-1.98 5.75-4.96 12.78-3.47 15.22 3.75 1.56 4.63 1.94 9.66 2.96 14.49.46 2.15-.37 2.95-2.42 3.28-8.6 1.4-17.17 2.91-24.3 4.13zm10.69-15.43c.83 2.05-.79 6.03 4.01 5.68 2.73-.2 5.35-.41 4.64-4.38-.55-3.06-.65-6.64-4.64-6.92-3.34-.24-4.21 2.39-4.01 5.62zm-4.64 5.84c-1.15-4.4-.75-8.36-4.96-8.36-3.19 0-4.27 2.56-3.47 5.55.57 2.14-.6 5.86 3.81 5.07 2.11-.38 5.16.01 4.62-2.25zm-10.61 31.95c-.5-10.86 4.99-18.17 12.2-14.61 7.48 3.7 12.38 4.65 18.79-1.08 2.31-2.06 2.4 1.8 2.21 3.32-.61 4.85-5.15 6.36-8.18 9.17-1.42 1.32-4.37 1.98-3.32 4.73.92 2.4 3.29.93 5.03 1.11 1.63.16 3.27.44 4.9.47 1.62.03 2.83.39 2.79 2.29-.03 1.41 0 3.45-1.39 3.73-10.2 2.04-20.62 1.86-30.92 1.83-2.8 0-1.6-5.25-2.1-8.12-.16-.92-.02-1.88-.02-2.83zm15.4-.53c-.11-3.82-.66-7.33-5-7.33-3.47 0-4.58 2.81-4.37 5.94.2 3.07.33 6.07 5.03 5.51 3.06-.36 5.02-.89 4.35-4.12zm18.38 35.55c-.09 10.6-6.02 16.45-16.52 16.29-10.32-.16-17.65-7.08-17.49-16.51.16-9.35 7.18-15.8 17.24-15.84 10.84-.04 16.86 5.72 16.77 16.06zm-16.37 8.6c6.44.08 10.9-3.37 10.91-8.41 0-5.05-5.08-9.25-11.45-8.95-5.23.25-9.9 1.87-10.4 8.21-.43 5.38 4.1 9.07 10.95 9.15zm-57.48-184.64c.07-6.71 4.71-12.66 11.84-15.24 6.94-2.51 13.13-.71 17.88 4.38 2.99 3.2 4.68 7.61 6.98 11.46 1.4 2.34-.07 3.42-1.86 4.39-7.89 4.29-15.78 8.58-23.67 12.89-1.47.8-2.97 1.94-4.09-.37-2.75-5.68-7.17-10.69-7.1-17.51zm6.76 1.47c.8 2.94.73 6.62 4.66 7.62 1.79.46 16.89-9.18 16.78-10.36-.04-.43-.38-.85-.59-1.26-2.35-4.46-5.52-7.94-11.08-6.52-5.24 1.34-9.52 4.08-9.77 10.52zM407.91 694.36c-.08-10.05 6.4-17.19 15.72-17.33 9.16-.13 16.19 7.46 16.44 17.74.24 10.15-6.71 17.6-16.33 17.51-9.37-.09-15.74-7.31-15.83-17.92zm24.68.68c-.11-6.72-3.84-11.55-9.08-11.22-6.22.39-8.22 4.67-8.31 10.19-.11 6.69 3.56 11.48 8.74 11.59 5.28.12 8.75-4.11 8.64-10.56zm195.82-104.36c-.46 10.13-6.61 16.35-15.56 15.74-9.3-.63-18.1-10.01-17.75-18.91.33-8.4 8.16-15.74 16.38-15.37 9.73.44 17.37 8.81 16.93 18.55zm-13.57 8.82c4.24-.72 7.53-3.02 7.83-8.08.31-5.13-6.51-11.98-11.93-12.27-4.43-.24-8.89 4.03-8.76 8.4.15 5.13 7.16 11.89 12.86 11.96zm-73.21-311.23c-5.22-2.56-10.74-4.48-12.79-10.41-1.79-5.19-.38-9.88 3.33-13.72 4.27-4.41 9.74-4.81 15.14-2.98 5.08 1.72 8.21 5.75 8.49 11.19.54 10.52-6.62 17.88-11.62 26-1.26 2.04-4.82.88-8.16.47 1.98-3.72 3.78-7.13 5.6-10.55zm7.01-14.5c-.7-3.68-2.52-6.28-6.46-6.23-4.21.05-6.5 2.53-6.38 6.71.11 3.82 2.4 6.24 6.21 6.21 4.13-.03 6.17-2.77 6.63-6.7zM495.7 690.98c-10.65-.1-18.28-8.93-17.94-19.27.29-8.89 8.43-16.48 17.24-16.4 3.52.03 4.12 1.45 4.25 4.74.17 4.37-2.69 1.52-3.72 1.73-4.75.93-8.69 2.84-10.19 7.64-1.5 4.78.61 8.86 3.94 12.16 2.75 2.74 6.27 3.36 9.81 1.67 1.96-.94 4.81-1.65 3.94-4.92-.73-2.73-2.38-2.82-4.82-1.79-2.23.95-2.65-1.35-3.25-2.75-.73-1.7.33-2.9 1.84-3.11 3.18-.45 5.91-5.13 9.3-1.87 4.23 4.08 5.07 12.69 2.1 16-3.66 4.07-8.33 6.06-12.5 6.15zm33.38-47.8c-.48 1.91-2.55 2.32-4.08 3.26-2.2 1.37-4.54 2.53-6.84 3.73-1.95 1.01-1.97 2.29-.87 4.01 1.04 1.63 1.78 3.55 4.28 2.17 2.69-1.49 5.42-2.9 8.05-4.48 2.07-1.25 2.92-.05 3.86 1.5.99 1.63 1.4 2.96-.69 4.05-2.1 1.09-4.09 2.37-6.2 3.44-2.47 1.25-4.47 2.2-2.59 5.79 1.84 3.51 3.63 2.67 6.07 1.15 2.2-1.37 4.57-2.49 6.78-3.85 1.85-1.13 3.24-1.5 4.59.82 1.4 2.4.95 3.8-1.45 5.04-4.4 2.29-8.86 4.51-13.03 7.19-3.25 2.09-4.85 1.36-6.52-1.89-3.9-7.56-8.02-15-12.22-22.4-1.2-2.11-2.04-3.55.85-5.01 5.06-2.56 9.91-5.52 14.95-8.12 2.27-1.17 5.33.99 5.05 3.6zm160.52-388.2c8.69-.12 13.59 3.92 15.26 10.73 1.73 7.06-.26 13.15-6.35 15.64-6.52 2.67-13.51 4.22-20.31 6.22-2.46.72-3.46-.67-3.85-2.84-.36-1.99-.43-3.65 2.2-4.3 5.27-1.32 10.52-2.76 15.71-4.4 4.15-1.31 7.47-3.58 5.98-8.74-1.44-4.94-5.04-5.74-9.54-4.47-5.22 1.48-10.5 2.79-15.66 4.43-2.81.89-3.87-.24-4.56-2.68-.61-2.13-.5-3.6 2.04-4.29 7.06-1.89 14.09-3.92 19.09-5.32zm-96.4 16.81c-.84-4.24-1.23-7.98 3.53-9.7 4.89-1.77 9.92-3.57 14.6.3 6.91 5.7 7.65 10.54 2.86 18.3-2.18 3.53-4.7 6.85-7.2 10.45 3.14 1.68 5.99.8 8.68 1.01 2.5.2 3.1 1.43 3.09 3.68-.01 2.34-.83 3.42-3.27 3.4-7.46-.07-14.91-.03-23.85-.03 4.44-5.9 8.07-10.68 11.65-15.5 1.4-1.89 2.8-3.8 3.99-5.82 1.63-2.75 2.71-5.83.16-8.48-2.49-2.59-5.62-1.88-8.55-.49-1.87.89-3.7 1.87-5.7 2.89zm76.32 220.41c5.88.43 11.78.75 17.64 1.35 1.54.16 4.38-1.28 4.36 1.76-.02 2.04-1.39 3.65-4.04 4.15-3.63.68-7.72.39-9.36 5.58-1.29 4.07-2.94 7.28 1.49 10.33 3.14 2.16 1.26 5.12-.29 6.75-2.46 2.57-3.47-1.07-4.64-2.2-6.27-6.08-12.25-12.45-18.43-18.62-1.99-1.98-3.27-3.65-1.69-6.71 1.39-2.68 3.22-2.95 5.76-2.72 3.05.28 6.13.31 9.19.44v-.11zm1.38 13.25c1.4-1.2 2.27-3.21 2.46-5.72-2.96-.86-5.86-.87-9.31-.48 2.45 2.22 4.6 4.17 6.85 6.2zM554.63 629.43c-3.56 1.14-7.45 1.51-10.28 4.26-1.19 1.16-2.4 2.42-1.4 4.3.95 1.78 2.49 1.95 4.25 1.46 2.5-.7 5.01-1.38 7.52-2.05 7.39-1.99 14.63 3.98 11.2 13.58-2.25 6.3-7.94 8.53-13.81 9.74-3.09.64-4.03-2.39-5.15-5.21 3.94-1.24 8.13-1.44 11.19-4.31 1.41-1.33 2.91-2.69 1.88-4.84-.98-2.05-2.84-2.27-4.86-1.73-2.74.73-5.44 1.62-8.22 2.18-4.45.88-7.87-.82-10.22-4.67-2.47-4.04-1.36-7.76 1.26-11.17 5.54-7.23 12.95-7.93 16.62-1.51zm30.46-36.05c1.92.07 2.54 1.55 3.5 2.51 1.31 1.33.72 2.46-.56 3.53-2.17 1.82-4.15 3.86-6.4 5.57-2.55 1.94-3.12 3.39-.5 6.05 2.51 2.55 4.12 2.36 6.29-.03 1.26-1.39 2.79-2.53 4.2-3.79 1.63-1.47 3.02-2.82 5.27-.48 2.26 2.34 1.06 3.6-.75 5.08-.91.75-1.64 1.75-2.63 2.36-5.13 3.16-5.07 6.23-.49 10.06 1.66 1.38 5.39 2.93 1.6 6.57-3.91 3.76-5.19.18-7.05-1.83-5.28-5.72-10.37-11.61-15.69-17.28-2.34-2.49-2.94-4.36.14-6.81 3.87-3.07 7.42-6.55 11.12-9.85.69-.61 1.4-1.19 1.96-1.67zm122.14-170.63c-8.95-1.24-16.89-2.32-24.83-3.44-2.82-.4-4.02-1.77-3.45-4.87.93-5.06 1.53-10.18 2.16-15.29.29-2.4 1.27-3.23 3.75-2.69 2.29.5 3.26 1.48 2.8 3.87-.5 2.54-.79 5.12-1.2 7.68-.42 2.58-.34 4.47 3.15 4.88 3.42.4 4.83-.86 5.17-4 .21-1.88.49-3.74.66-5.62.22-2.46 1.02-3.93 3.97-3.49 3.24.48 3.09 2.66 2.44 4.7-2.35 7.39-1 11.9 7.95 11.3 2.03-.14 3.19 1.28 2.84 3.17-.66 3.53-3.16 4.38-5.4 3.81zM506.09 273.63c0-6.75 8.61-14.03 14.42-12.89 2.24.44 2.45 1.79 2.45 3.53 0 10.36-.08 20.73.03 31.09.03 3.19-1.39 3.9-4.3 3.94-3.26.04-3.97-1.43-3.9-4.28.13-5.41.04-10.83.04-16.25q0-9.07-8.73-5.13zm139.89 300.2c-.95-.64-1.94-1.28-2.9-1.97-4.02-2.89-8.31-5.49-11.98-8.78-4.47-4.02-8.04-5.34-11.21 1.18-1.01 2.09-2.56 2.49-4.52.84-1.33-1.11-2.86-1.96-1.21-3.88 4.87-5.67 7.94-12.79 14.14-17.41 1.53-1.14 2.52-2.92 4.62-.82 1.79 1.79.52 3.15-.56 4.2-4.3 4.18-2.04 6.52 1.93 9.1 4.94 3.21 9.54 6.93 14.29 10.43 1.12.83 2.61 1.63 1.46 3.32-1.04 1.52-1.94 3.29-4.06 3.8zm56.03-119.76c-8.88-2.08-17.6-4.22-26.37-6.14-3.09-.68-1.85-2.74-1.76-4.4.12-2.16.81-3.52 3.56-2.79 5.48 1.44 11.14 2.26 16.53 3.97 4.93 1.57 7.24.57 8.3-4.75.61-3.08-.61-9.23 4.75-8.2 6.91 1.34 1.22 6.39 1.13 9.68-.09 3.25-1.3 6.46-2 9.69-.51 2.34-1.34 4.17-4.15 2.95zm-34.61 14.19c6.02 2.03 12.19 3.7 18.01 6.19 5.05 2.16 6.86.59 8.54-4.23.98-2.81-.25-9.37 5.64-7.49 6.02 1.92.98 6.41.13 9.19-4.21 13.76-4.41 13.69-17.73 9.07-5.33-1.85-10.66-3.71-16.04-5.45-2.5-.81-2.61-2.37-1.77-4.37.61-1.45.86-3.37 3.22-2.91zM529.8 322.29c.62-.4 1.29-.56 1.65.22.13.29-.22.79-.35 1.2-.43-.48-.87-.95-1.3-1.43z" class="cls-1"/></g></svg>