<svg xmlns="http://www.w3.org/2000/svg" id="Layer_1" data-name="Layer 1" viewBox="0 0 1004.6 508.52"><defs><style>.cls-1{fill:#606060;stroke-width:0}</style></defs><g id="_2bQnuU" data-name="2bQnuU"><path d="M991.74 193.24c-4 6.55-10.35 10.6-16.4 14.81-20.44 14.23-43.44 22.13-67.71 26.8-13.66 2.63-27.41 5.14-41.27 5.69-18.36.74-36.9 1.48-55.13-.2-16.92-1.56-33.91-3.66-50.68-7.16-13.02-2.72-26.22-4.87-39.17-7.76-18.13-4.04-36.34-7.27-54.72-9.79-27.42-3.76-54.99-3.12-82.53-2.66-16.13.27-32.28.76-48.36 1.95-20.87 1.54-41.77 2.49-62.62 4.49-18.02 1.73-36.05 3.24-53.93 6.08-22.62 3.59-45.42 6.16-67.79 11.24-25.58 5.81-50.95 12.36-75.38 22.12-1.79.72-3.68 1.17-6.66 2.1 2.54-4.11 5.91-4.87 8.67-5.98 18.17-7.35 36.76-13.52 55.75-18.33 20.1-5.09 40.39-9.41 60.82-13.02 29.43-5.19 59.01-9.27 88.76-12.32 23.8-2.44 47.59-4.73 71.49-5.96 18.58-.96 37.14-2.44 55.69-3.83 4.27-.32 8.5-1.26 12.75-1.91.66.03 1.34.15 1.99.06 15.61-2.12 30.98-5.48 46.42-8.54 11.8-2.34 22.8-5.87 32.42-13.59 23.37-18.76 43.45-40.68 62.22-63.85 4.11-5.07 8.8-9.91 11.43-16.11.52-1.22 1.45-2.68-.08-3.52-1.45-.8-2.75.34-2.85 1.8-.16 2.55-1.93 2.65-3.71 3.15-1.41.4-2.97.87-4.03 1.8-7.99 7.06-17.22 12.18-26.7 16.74-4.01 1.93-8.62 2.58-13.42.77-6.01-2.27-10.49-9.46-18.36-6-2.55-3.33-6.12-5.02-10-6.22-.3-4.29 2.67-7.54 4.47-10.75 12.33-22.12 21.86-45.39 29.74-69.39 2.36-7.2 3.27-7.87 10.32-4.83 16.22 6.99 31.38 16.05 46.71 24.74 3.62 2.05 7.22 4.14 10.83 6.2 2.25 1.28 3.55.93 4.28-1.86 3.05-11.79 10.7-21.55 14.73-32.92 1.43-4.02 2.67-8.11 4.05-12.15 1.97-5.74 3.55-6.56 8.39-3.01 10.69 7.84 20.57 16.64 30.21 25.77 13.51 12.8 26.45 26.1 38.3 40.44 8.27 10.02 16.22 20.3 23.42 31.12 11.12 16.71 22.14 33.49 33.11 50.31 2.21 3.38 3.18 7.57 6.69 10.1 7.22 12.06 14.22 24.31 26.86 31.8.47.28.65 1.04.96 1.57zM495.35 347.83c6.8 13.4 6.98 26.2.76 38.72-7.46 15.02-20.89 21.26-36.73 23.12-7.45.88-14.94.66-22.38-.84-5.14-1.03-11.12 4.4-12.56 11.01-1.21 5.58 1.51 10.28 7.09 11.88 7 2 14.24 1 21.36 1.42 10.29.62 20.64-.27 30.9 1.27 13.08 1.97 23.74 7.39 27.55 21.04 4.16 14.89.12 27.63-11.96 37.51-11.08 9.07-24.25 12.89-38.13 14.66-11.64 1.49-23.24.98-34.82-.9-8.21-1.33-16.36-3.87-22.12-9.5-7.07-6.91-8.99-16.43-7.13-26.38 2-10.68 8.62-18.01 17.49-23.66-14.39-14.4-13.96-29.62 1.19-43.57 1.88-1.73 2.32-2.47.1-4.43-13.83-12.17-17.61-27.48-12.4-44.77 5.24-17.37 18.41-25.82 35.5-28.84 15.62-2.76 30.53-.75 44.07 8.07 2.11 1.37 3.48.86 5.36-.26 7.15-4.26 15.11-5.72 23.26-6.77 4.38-.56 5.3 1.71 5.7 5.07.04.31-.15.65-.18.98-.43 4.91 1.79 11.28-1.65 14.34-3.14 2.79-9.26.66-14.06.81-1.81.06-3.62 0-6.2 0zm-45.89 141.85c3.71.25 8.52-.35 13.26-1.19 8.32-1.47 16.18-4.21 21.96-10.81 7.81-8.91 3.66-21.95-7.88-23.76-14.02-2.19-28.26-1.84-42.37-.93-8.67.56-14.82 8.69-15.39 18.27-.49 8.18 3.99 13.88 12.98 16.46 5.32 1.53 10.79 1.93 17.44 1.95zm1.53-96.89c15.83.15 25.35-9.12 25.54-24.88.2-15.8-9.3-25.89-24.53-26.07-16.03-.19-25.33 9.05-25.43 25.29-.1 16.43 8.55 25.52 24.41 25.67zm341.03 45.47c4.75-15.36 9.5-30.72 14.24-46.09 6.22-20.16 12.47-40.32 18.58-60.51.94-3.11 2.41-4.9 5.83-4.85 5.49.09 10.99.02 16.48.07 2.69.03 3.78.77 2.74 3.95-12.64 38.69-25.1 77.43-37.67 116.14-3.8 11.69-7.65 23.37-11.74 34.96-1.94 5.5-4.69 10.66-8.32 15.29-6.79 8.65-16.23 11.17-26.59 11.28-5.83.06-11.59-.89-17.32-2.01-2.81-.55-4.04-1.95-3.28-4.87.29-1.12.39-2.3.54-3.45 1.43-10.73 1.73-10.95 11.98-9.22 11.84 2.01 18.58-1.56 22.73-12.67 2.91-7.77 5.12-15.8 7.89-23.62 1.01-2.85-.2-2.9-2.4-3.06-4.57-.32-10.29 2.11-13.42-1.22-2.9-3.09-3.35-8.51-4.82-12.92-11.4-34.22-22.78-68.45-34.18-102.66-1.91-5.74-1.88-5.98 4.34-6.09 6.32-.11 13.58-2.07 18.69.95 5.05 2.99 4.67 10.8 6.41 16.56 9.53 31.33 18.86 62.72 28.26 94.09l1.01-.07zm-79.42-34.43c0 14-.05 26.16.04 38.31.02 2.64-.42 4.23-3.48 4.87-19.3 4.01-38.63 6.98-58.4 3.77-14.51-2.36-26.57-8.41-31.52-23.24-5.33-15.96-2.73-30.99 9.73-42.7 8.38-7.88 19.42-11.14 30.92-12.19 8.32-.77 16.66-.52 24.95.24 3.03.28 3.98-.11 4.09-3.42.66-19.65-10.55-25.57-30.05-25.23-8.16.14-16.25 1.42-24.03 3.91-3.11.99-4.09-.23-5.14-2.71-1.71-4.06-2.22-8.33-2.81-12.61-.23-1.63.06-2.9 1.99-3.39 20.4-5.26 40.89-8.22 61.23-.18 13.84 5.47 20.04 16.78 21.63 30.99 1.69 15.11.37 30.29.84 43.59zm-23.75 7.64h-.02v-8.49c0-10.91 0-11.07-10.72-11.95-10.03-.83-20.06-.8-28.97 4.88-7.77 4.96-9.18 12.72-8.02 21.05 1.09 7.9 6.04 12.92 13.71 14.65 10.38 2.34 20.82 1.36 31.21-.38 2.22-.37 2.92-1.55 2.85-3.78-.15-5.32-.05-10.65-.05-15.98zm-396.87-65.41c6.73-9.57 14.62-16.97 25.6-19.59 27.65-6.6 53.15 2.82 54.08 41.54.37 15.49.07 30.99.07 46.49 0 10-.13 20 .07 29.99.07 3.58-.5 5.42-4.71 5.49-5 .09-9.97-.04-14.96-.09-3.6-.04-4.38-1.51-4.36-4.83.12-22.16.08-44.33.05-66.49 0-4.32-.22-8.61-.95-12.92-3.01-17.97-15.17-22.58-30.04-18.43-13.21 3.69-22.05 15.9-23.11 32.35-1.34 20.8-.28 41.64-.56 62.46-.12 8.73 1.03 7.34-7.83 8.04-4.13.33-8.32-.23-12.48-.24-2.59 0-3.37-1.13-3.36-3.66.06-38.49.07-76.99 0-115.48 0-2.88 1.24-3.88 3.8-3.98.17 0 .33-.02.5-.04 15.22-1.69 16.09-1.01 17.76 13.95.18 1.59.26 3.18.44 5.44zM33.92 452.08c-10.38.05-20.53-1.37-30.48-4.4-2.98-.91-4.25-2.25-2.91-5.29.07-.15.08-.32.1-.49.79-4.62 1.41-10.01 4.42-13.02 3.45-3.46 8.07 1.1 12.2 1.85 11.43 2.08 22.77 3.61 33.85-1.2 11.89-5.16 15.01-18.96 5.92-26.65-3.31-2.8-7.37-4.76-11.61-6.17-8.83-2.94-17.67-5.92-25.84-10.47-18.28-10.17-22.49-32.33-8.98-48.33 7.7-9.13 18.46-12.09 29.8-13.08 13.07-1.14 25.87.62 38.45 4.35 3.12.92 4.25 2.19 3.05 5.25-.12.3-.07.66-.12.99-.66 4.12-1.11 8.87-3.82 11.67-3.29 3.4-7.43-.62-11.15-1.41-9.2-1.94-18.36-3.14-27.67-.94-7.62 1.79-11.3 5.29-12.1 11.46-.72 5.56 2.61 11.24 8.81 14.41 6.98 3.57 14.59 5.48 21.95 8.07 9.02 3.17 17.92 6.64 23.19 15.36 11.9 19.67 2.72 45.06-19.22 53.51-8.98 3.46-18.27 4.9-27.87 4.53z" class="cls-1"/><path d="M698.68 106.1c3.88 1.2 7.45 2.89 10 6.22 7.87-3.46 12.35 3.73 18.36 6 4.79 1.81 9.4 1.16 13.42-.77 9.48-4.56 18.72-9.69 26.7-16.74 1.06-.93 2.62-1.41 4.03-1.8 1.77-.5 3.54-.6 3.71-3.15.09-1.46 1.4-2.59 2.85-1.8 1.53.84.59 2.3.08 3.52-2.63 6.2-7.32 11.04-11.43 16.11-18.77 23.17-38.86 45.09-62.22 63.85-9.62 7.72-20.63 11.25-32.42 13.59-15.44 3.06-30.81 6.42-46.42 8.54-.65.09-1.33-.04-1.99-.06 8.12-7.06 16.64-13.64 24.1-21.47 18.66-19.55 33.65-41.68 46.48-65.36 1.29-2.39 3.16-4.46 4.77-6.67zM143.9 383.19c.39 9.26-.68 21.09.64 32.9 1.36 12.23 5.1 15.71 17.22 15.72 3.17 0 6.35.05 9.41-.91 3.76-1.19 5.15.21 5.93 4.06 2.73 13.39 1.82 14.87-11.45 15.87-8 .6-16.05.97-23.78-1.54-13.99-4.54-19.89-12.1-21.11-26.96-1.56-19.11-.37-38.29-.63-57.45-.07-5-.15-10-.02-14.99.07-2.62-.9-3.51-3.48-3.41-3.99.17-8 .12-11.99 0-1.18-.04-2.89.84-3.5-.8-.59-1.6-.22-3.21 1.11-4.58 2.2-2.27 4.26-4.67 6.37-7.03 10.08-11.25 20.14-22.53 30.27-33.74 1.13-1.25 2.12-3.66 4.24-2.6 1.66.82.69 3.04.71 4.61.11 7.16.19 14.33.04 21.49-.06 2.83.84 3.75 3.71 3.69 7.83-.17 15.67.13 23.49-.12 3.37-.11 4.24 1.25 4.55 4.25 1.47 14.33 1.04 14.88-13.03 14.87-4.83 0-9.67.23-14.49-.03-3.28-.18-4.34.84-4.27 4.17.19 9.99.07 19.99.07 32.54zm417.23-38.07c1.89-2.17 3.5-4 5.1-5.84 8.67-10 19.86-13.41 32.72-12.63 2.55.15 4.09.85 4.1 3.72 0 2.16.54 4.32.44 6.47-.16 3.48.26 7.4-1.2 10.32-1.78 3.55-6.04.97-9.03 1.1-21.5.88-29.41 16.07-30.47 31.77-1.42 21.13-.51 42.31-.45 63.46.01 5.07-1.37 6.91-6.34 6.56-4.31-.3-8.66-.33-12.98-.12-3.9.19-4.57-1.57-4.55-5.09.14-26.16.08-52.33.08-78.49 0-11.5.19-23-.11-34.49-.11-4.11 1.46-5.33 5.14-5.21 2.99.1 6.02.23 8.99-.08 5.28-.55 7.03 2.07 7.23 6.88.16 3.75.83 7.47 1.33 11.7zM231.6 388.86c0 18.64-.08 37.29.08 55.93.03 3.58-.84 5.11-4.65 5.1-4.97-.01-9.91.52-14.94.07-3.51-.32-4.33-1.53-4.32-4.86.12-31.3-.02-62.59.17-93.89.03-4.24-1.23-5.14-5.27-5.17-11.42-.07-10.9 2.65-10.98-10.81-.05-7.75.03-7.75 7.52-7.75 9.32 0 18.65.15 27.97-.08 3.54-.09 4.51 1.07 4.48 4.52-.14 18.98-.07 37.95-.06 56.93zm760.14-195.62c-.31-.54-.49-1.3-.96-1.57-12.65-7.49-19.64-19.74-26.86-31.8 8 1.77 15.59 5.07 23.75 6.2 3.92.54 7.88.9 11.76 1.66 4.59.9 6.11 3.51 4.6 7.96-2.39 7.01-5.97 13.27-12.29 17.56zm-764.89 96.37c-.17 3.73-3.48 7.07-6.92 7-4.51-.09-7.66-3.52-7.43-8.09.22-4.38 3.09-7.08 7.37-6.95 3.89.12 7.17 3.9 6.98 8.04z" class="cls-1"/></g></svg>